<?xml version="1.0" encoding="UTF-8"?>
<svg version="1.1" xmlns="http://www.w3.org/2000/svg" width="800" height="800">
<path d="M0 0 C264 0 528 0 800 0 C800 264 800 528 800 800 C536 800 272 800 0 800 C0 536 0 272 0 0 Z " fill="#FEFEFE" transform="translate(0,0)"/>
<path d="M0 0 C7.80641885 4.60504834 14.0817367 10.76913403 20.45336914 17.1472168 C21.42800802 18.1158585 22.40305125 19.08409349 23.37846375 20.05195618 C26.00718353 22.66313121 28.62950104 25.28064303 31.25010228 27.89996314 C32.89269061 29.54112291 34.53669792 31.18084742 36.18121147 32.8200779 C41.9325827 38.55298802 47.67880743 44.29099844 53.42016602 50.03393555 C58.74946826 55.36443859 64.08981985 60.68368964 69.43549067 65.99777287 C74.04419491 70.58022393 78.64505116 75.17045715 83.2400102 79.76669055 C85.97585767 82.50304493 88.71463458 85.23628943 91.46138191 87.96170616 C94.04692136 90.52770968 96.62245155 93.10337265 99.19101143 95.68636894 C100.57013214 97.06853689 101.95903991 98.44091842 103.34835815 99.81283569 C113.0144466 109.57551834 118.77811649 117.97540139 118.79125977 131.84155273 C118.62431223 141.17579711 115.84394867 147.90062146 109.390625 154.7109375 C102.07819785 161.39658518 93.04209893 165.18638396 83.078125 164.80078125 C68.94348863 162.95436479 59.54121129 152.84418859 49.96875 143.1484375 C49.11725372 142.29411133 48.26575745 141.43978516 47.38845825 140.55957031 C44.70470496 137.86473873 42.02804042 135.16299301 39.3515625 132.4609375 C37.51869597 130.6180252 35.68536676 128.77557295 33.8515625 126.93359375 C29.38787211 122.44800712 24.92995964 117.95674245 20.4765625 113.4609375 C20.47596541 114.21004577 20.47536832 114.95915405 20.47475314 115.73096257 C20.43885116 160.13938767 20.38219983 204.5477448 20.29864155 248.9561071 C20.28862422 254.28950407 20.27878006 259.62290134 20.26904297 264.95629883 C20.26613091 266.54895899 20.26613091 266.54895899 20.26316002 268.17379411 C20.23214767 285.36085362 20.2151615 302.54789978 20.20336828 319.73498199 C20.19095277 337.37343674 20.1634423 355.01182147 20.12194943 372.65023202 C20.09682554 383.53212802 20.08344442 394.4139079 20.08513293 405.29583331 C20.08516271 412.76023297 20.07051641 420.22451443 20.04439822 427.68886802 C20.02976558 431.99399615 20.0215379 436.29888189 20.03075981 440.60403061 C20.03907019 444.55051073 20.02882811 448.49650467 20.00422588 452.44291284 C19.99856013 453.86569946 19.99952991 455.28853243 20.00805005 456.71130482 C20.07250468 468.48972391 18.22617322 478.22390463 10.53515625 487.453125 C3.92422152 493.90098164 -4.41540328 497.70576914 -13.65301895 497.71820641 C-14.86753652 497.7246553 -16.08205409 497.73110419 -17.33337522 497.7377485 C-18.67262898 497.73480653 -20.01188234 497.73167112 -21.35113525 497.72836304 C-22.78049483 497.73210094 -24.20985235 497.73670303 -25.63920665 497.74209368 C-29.56271402 497.75432188 -33.48613611 497.75406343 -37.40965819 497.75170493 C-41.64292574 497.75129672 -45.87616597 497.76233639 -50.10942078 497.77182007 C-58.40182318 497.78843029 -66.69419715 497.79392963 -74.98661479 497.79504482 C-81.72790468 497.79599533 -88.46918519 497.80010577 -95.21047211 497.80644608 C-114.3264937 497.82405891 -133.44249284 497.83328493 -152.55852261 497.83178513 C-154.10422433 497.83166526 -154.10422433 497.83166526 -155.68115234 497.83154297 C-157.22874316 497.83142033 -157.22874316 497.83142033 -158.80759844 497.83129521 C-175.52617074 497.8304824 -192.24465293 497.84961862 -208.96319917 497.8778197 C-226.13285225 497.90655299 -243.30246139 497.92035974 -260.47213912 497.91863215 C-270.11031255 497.91796838 -279.74839151 497.92345495 -289.38654327 497.94498825 C-297.59321094 497.96320593 -305.79974133 497.96754259 -314.00642046 497.9539694 C-318.19199788 497.94744258 -322.37731199 497.94731209 -326.5628643 497.9646759 C-330.39861909 497.98042461 -334.2339022 497.97752499 -338.06964561 497.96010764 C-340.10595326 497.9555952 -342.14227564 497.97068097 -344.17852616 497.98658693 C-355.89225742 497.89863375 -363.80002851 495.06815295 -372.3203125 486.9765625 C-379.83507874 478.39587197 -381.48500395 468.54788248 -380.78417969 457.51611328 C-379.73821223 449.27177426 -374.57505489 442.2930095 -368.16993165 437.27890128 C-359.43242321 431.27681967 -350.8739035 429.7284388 -340.46343994 429.85966492 C-339.20663422 429.85538483 -337.94982849 429.85110474 -336.65493774 429.84669495 C-333.19431087 429.83558014 -329.73447041 429.85540662 -326.27394325 429.88057385 C-322.47450265 429.90254385 -318.67509333 429.89509187 -314.87560654 429.89148426 C-307.5136535 429.88883524 -300.15200755 429.91183063 -292.79013322 429.9439909 C-284.26744844 429.98010182 -275.74494604 429.98397066 -267.22216797 429.98791504 C-244.73920942 430.01412787 -222.2563188 430.08393387 -199.7734375 430.1484375 C-149.5309375 430.2515625 -99.2884375 430.3546875 -47.5234375 430.4609375 C-48.0184375 273.0509375 -48.0184375 273.0509375 -48.5234375 112.4609375 C-63.7034375 127.6409375 -78.8834375 142.8209375 -94.5234375 158.4609375 C-105.15040064 163.77441907 -113.57094159 166.65087673 -125.0859375 162.8984375 C-134.91421661 158.91437521 -140.94200197 152.98100522 -145.5234375 143.4609375 C-148.38491538 136.56737715 -148.77705291 128.12638122 -146.8359375 120.90234375 C-142.73234595 111.03662574 -134.96816819 103.60460023 -127.54589844 96.17700195 C-126.54608629 95.16955292 -125.54667218 94.16170874 -124.54762268 93.15350342 C-121.85190215 90.43598952 -119.14977777 87.72493588 -116.44569302 85.01574731 C-114.75239251 83.31878705 -113.06039343 81.62053981 -111.36881256 79.92186546 C-105.45583121 73.98444827 -99.53720322 68.05272117 -93.61376953 62.12573242 C-88.11011377 56.61843966 -82.61973994 51.09814336 -77.13523078 45.57178909 C-72.40929553 40.81107695 -67.67370196 36.06011518 -62.93069482 31.31641167 C-60.10530888 28.49023585 -57.28397362 25.660294 -54.47252655 22.82024574 C-51.82740239 20.14881173 -49.17038453 17.48978967 -46.50410271 14.83947754 C-45.07352516 13.4115578 -43.6552483 11.97134684 -42.23750305 10.53068542 C-30.48591995 -1.0892769 -16.09171104 -6.8462916 0 0 Z " fill="#010101" transform="translate(647.5234375,52.5390625)"/>
<path d="M0 0 C1.82216477 -0.00853686 1.82216477 -0.00853686 3.68114096 -0.01724619 C5.02588871 -0.0185387 6.37063656 -0.01972674 7.71538448 -0.02082157 C9.14657938 -0.02555454 10.57777294 -0.03070572 12.00896496 -0.03623921 C15.9422455 -0.05012776 19.8755168 -0.0577239 23.8088156 -0.0642122 C27.18245086 -0.07058939 30.55607099 -0.08065858 33.92969681 -0.09077286 C45.04323352 -0.12407337 56.15677942 -0.14561311 67.27034965 -0.16397271 C70.16471827 -0.16876927 73.05908651 -0.1737524 75.95345473 -0.17877793 C93.93331018 -0.20974879 111.91316888 -0.23642932 129.89304352 -0.25319672 C134.05639368 -0.2571461 138.21974379 -0.26114911 142.38309383 -0.2652216 C143.41785254 -0.26622996 144.45261125 -0.26723832 145.51872628 -0.26827724 C162.278078 -0.28528119 179.037282 -0.32638879 195.79656161 -0.37724458 C213.00912628 -0.42904559 230.22161501 -0.45814216 247.43425697 -0.4653936 C257.09605111 -0.47005248 266.75760324 -0.48476865 276.41932011 -0.5251379 C284.64831027 -0.55947952 292.87701473 -0.57336045 301.10607243 -0.56071376 C305.30215271 -0.5548967 309.49762906 -0.55868297 313.69361782 -0.5888834 C317.54141083 -0.61635083 321.3881739 -0.61566982 325.23599087 -0.59337295 C327.27388822 -0.58865395 329.31178968 -0.61333022 331.34952646 -0.63934225 C342.44704469 -0.52627288 350.55470572 2.96101569 358.98343563 10.1398077 C360.71390438 12.2882452 360.71390438 12.2882452 362.17093563 14.5148077 C362.65949032 15.24441708 363.14804501 15.97402645 363.65140438 16.7257452 C367.7906975 24.22745531 368.22127706 32.77224237 366.98343563 41.1398077 C364.17019042 49.40599897 359.738006 56.90644137 352.04593563 61.3273077 C351.21191219 61.81586239 350.37788876 62.30441708 349.51859188 62.80777645 C345.08022659 65.13979889 341.60734827 66.39001015 336.55804634 66.38590336 C335.47520526 66.38988546 334.39236418 66.39386755 333.27670974 66.39797032 C332.09286187 66.39214464 330.909014 66.38631895 329.68929195 66.38031673 C328.4272857 66.38202558 327.16527945 66.38373443 325.86503059 66.38549507 C322.36459662 66.38996673 318.86428506 66.38196744 315.36386669 66.37193894 C311.58818656 66.36330413 307.81251336 66.36622463 304.03682613 66.36774349 C297.49601448 66.36879232 290.95524273 66.36251591 284.41444111 66.35126781 C274.95753914 66.33501554 265.50065646 66.32980509 256.04374204 66.32729183 C240.70063092 66.3229143 225.35754106 66.30960362 210.01444149 66.29068661 C195.10982016 66.27232931 180.20520463 66.258195 165.3005743 66.24967098 C164.37252336 66.24913499 163.44447241 66.24859899 162.48829871 66.24804676 C155.2303587 66.24388792 147.97241856 66.23997407 140.71447837 66.23613763 C105.13744461 66.21726938 69.56046407 66.17703298 33.98343563 66.1398077 C34.31343563 149.2998077 34.64343563 232.4598077 34.98343563 318.1398077 C50.16343563 302.9598077 65.34343563 287.7798077 80.98343563 272.1398077 C91.25936052 267.00184526 98.62399048 264.35598179 109.92093563 267.1398077 C119.20004671 270.28155397 126.34083168 276.12461779 130.90140438 284.7726202 C135.32756401 294.45584306 135.0384112 303.46310134 131.44437313 313.33902645 C127.15670528 321.55896722 120.49671745 327.92826254 114.00589657 334.42374325 C113.00608442 335.43119228 112.00667031 336.43903646 111.00762081 337.44724178 C108.31190028 340.16475568 105.6097759 342.87580932 102.90569115 345.58499789 C101.21239064 347.28195815 99.52039156 348.98020539 97.82881069 350.67887974 C91.91582934 356.61629693 85.99720135 362.54802403 80.07376766 368.47501278 C74.5701119 373.98230554 69.07973807 379.50260184 63.59522891 385.02895612 C58.86929366 389.78966825 54.13370009 394.54063002 49.39069295 399.28433353 C46.56530701 402.11050935 43.74397175 404.9404512 40.93252468 407.78049946 C38.28740052 410.45193347 35.63038266 413.11095553 32.96410084 415.76126766 C31.53352329 417.1891874 30.11524643 418.62939836 28.69750118 420.07005978 C19.78277948 428.88493429 11.46143973 433.429481 -1.18282413 433.45670223 C-15.24176644 433.18318852 -24.65140938 422.80546951 -34.00924015 413.42179012 C-34.98549212 412.44989457 -35.96215813 411.47841477 -36.93920231 410.50731564 C-39.57190036 407.88791738 -42.1982519 405.26224495 -44.82303572 402.63491893 C-47.02290326 400.43397574 -49.22575361 398.23602966 -51.42854583 396.03801423 C-56.6286867 390.84893687 -61.82352103 385.65458914 -67.01509953 380.45694637 C-72.35392386 375.11208142 -77.70186339 369.77646332 -83.05434144 364.44527453 C-87.66637056 359.85090985 -92.27251929 355.2507065 -96.87410057 350.64587766 C-99.61510169 347.90307161 -102.35823278 345.16248954 -105.10711384 342.42757893 C-107.69287915 339.85446684 -110.2711711 337.27408558 -112.84412098 334.6881609 C-114.22868535 333.30013611 -115.62059128 331.91944642 -117.01278019 330.53906918 C-124.81865365 322.66786616 -132.19312516 314.65799432 -132.34566593 303.06095028 C-132.33744816 301.9552972 -132.33744816 301.9552972 -132.32906437 300.8273077 C-132.32487492 300.06764706 -132.32068546 299.30798641 -132.31636906 298.52530575 C-132.11004754 288.32885246 -128.32363168 281.13478183 -120.95406437 274.0148077 C-114.16091636 268.20165482 -106.44542137 265.3644295 -97.47750187 265.83121395 C-83.33502261 267.60463595 -73.84446803 276.83627058 -64.19234562 286.6710577 C-63.32006824 287.54757992 -62.44779087 288.42410213 -61.54908085 289.32718563 C-58.80186319 292.09101327 -56.0653425 294.86515361 -53.32906437 297.6398077 C-51.45367309 299.53198918 -49.5758704 301.42175565 -47.69820499 303.3116827 C-43.12959718 307.91312485 -38.56969202 312.52305006 -34.01656437 317.1398077 C-34.016347 316.53073314 -34.01612963 315.92165859 -34.01590568 315.29412723 C-34.00238025 279.16926766 -33.96285228 243.04452307 -33.88970875 206.91973327 C-33.88094234 202.57902928 -33.87239247 198.23832489 -33.86397648 193.8976202 C-33.86229742 193.03348964 -33.86061835 192.16935908 -33.85888841 191.27904275 C-33.83224229 177.30004674 -33.82312504 163.32109174 -33.82052294 149.34207293 C-33.81745997 134.99080028 -33.7954735 120.63964588 -33.7560398 106.28842664 C-33.73231357 97.43792393 -33.72322412 88.58765755 -33.73305126 79.73712745 C-33.73838039 73.66218948 -33.72527425 67.58746264 -33.69790146 61.51258478 C-33.6826622 58.01128435 -33.67533055 54.51045666 -33.68996716 51.00914288 C-33.70161701 47.2030822 -33.68242435 43.39834185 -33.65580082 39.59238338 C-33.66647408 38.49896248 -33.67714734 37.40554157 -33.68814403 36.27898669 C-33.54517521 25.27781162 -29.84874 16.01663431 -22.20015812 8.04996395 C-15.4443942 2.1401812 -8.88416129 0.0243356 0 0 Z " fill="#000000" transform="translate(166.01656436920166,316.86019229888916)"/>
</svg>
