<?xml version="1.0" encoding="UTF-8"?>
<!DOCTYPE svg PUBLIC "-//W3C//DTD SVG 1.1//EN" "http://www.w3.org/Graphics/SVG/1.1/DTD/svg11.dtd">
<svg xmlns="http://www.w3.org/2000/svg" version="1.1" width="200px" height="178px" style="shape-rendering:geometricPrecision; text-rendering:geometricPrecision; image-rendering:optimizeQuality; fill-rule:evenodd; clip-rule:evenodd" xmlns:xlink="http://www.w3.org/1999/xlink">
<g><path style="opacity:1" fill="#76aad2" d="M 183.5,0.5 C 186.392,1.39438 189.059,2.72772 191.5,4.5C 195.372,7.57477 197.706,11.5748 198.5,16.5C 198.631,17.2389 198.464,17.9056 198,18.5C 196.667,17.1667 195.333,15.8333 194,14.5C 192.961,15.7101 191.794,16.7101 190.5,17.5C 192.17,15.1452 191.503,13.8119 188.5,13.5C 187.353,13.8178 186.519,14.4844 186,15.5C 185.333,12.8333 184.667,12.8333 184,15.5C 182.413,14.273 181.079,14.6063 180,16.5C 178.755,16.5385 177.422,16.2052 176,15.5C 174.524,18.4322 172.857,18.7655 171,16.5C 170.667,17.1667 170.333,17.8333 170,18.5C 169.722,17.5842 169.222,16.9175 168.5,16.5C 168.047,15.5416 167.381,14.7083 166.5,14C 167.552,12.8808 168.719,12.3808 170,12.5C 170.667,7.16667 171.333,7.16667 172,12.5C 172.536,10.1311 173.703,8.13105 175.5,6.5C 174.319,4.80197 174.319,3.1353 175.5,1.5C 177.149,2.64768 178.649,3.98101 180,5.5C 181.487,4.74714 181.654,3.9138 180.5,3C 182.119,2.76445 183.119,1.93112 183.5,0.5 Z"/></g>
<g><path style="opacity:0.027" fill="#7c3d9a" d="M 191.5,3.5 C 192.833,4.16667 192.833,4.16667 191.5,3.5 Z"/></g>
<g><path style="opacity:0.027" fill="#7c3d9a" d="M 157.5,5.5 C 156.833,4.16667 156.833,4.16667 157.5,5.5 Z"/></g>
<g><path style="opacity:1" fill="#6eb1d1" d="M 167.5,-0.5 C 172.167,-0.5 176.833,-0.5 181.5,-0.5C 181.842,0.338246 182.508,0.67158 183.5,0.5C 183.119,1.93112 182.119,2.76445 180.5,3C 181.654,3.9138 181.487,4.74714 180,5.5C 178.649,3.98101 177.149,2.64768 175.5,1.5C 174.319,3.1353 174.319,4.80197 175.5,6.5C 173.703,8.13105 172.536,10.1311 172,12.5C 171.333,7.16667 170.667,7.16667 170,12.5C 168.719,12.3808 167.552,12.8808 166.5,14C 167.381,14.7083 168.047,15.5416 168.5,16.5C 168.291,17.9217 167.791,19.255 167,20.5C 166.333,17.8333 165.667,17.8333 165,20.5C 164.667,19.8333 164.333,19.1667 164,18.5C 162.46,22.5736 161.127,22.9069 160,19.5C 159.492,21.9042 158.325,22.5709 156.5,21.5C 155.194,22.9122 154.36,24.5789 154,26.5C 153.667,25.5 153.333,24.5 153,23.5C 152.529,25.2464 151.862,26.913 151,28.5C 150.586,28.0426 150.086,27.7093 149.5,27.5C 148.481,28.6872 147.314,29.6872 146,30.5C 144.251,29.701 142.918,30.3676 142,32.5C 141.586,32.0426 141.086,31.7093 140.5,31.5C 136.039,33.5643 131.706,35.8977 127.5,38.5C 126.261,38.0576 125.261,37.3909 124.5,36.5C 125.694,35.7281 126.694,34.7281 127.5,33.5C 129.404,33.2624 130.738,32.2624 131.5,30.5C 131.833,30.5 132.167,30.5 132.5,30.5C 133.5,30.1667 134.167,29.5 134.5,28.5C 142.5,21.1667 150.167,13.5 157.5,5.5C 160.869,3.48541 164.202,1.48541 167.5,-0.5 Z"/></g>
<g><path style="opacity:1" fill="#709dc8" d="M 190.5,17.5 C 189.778,17.9175 189.278,18.5842 189,19.5C 188.026,17.1224 187.359,17.4557 187,20.5C 184.438,20.2616 182.104,21.2616 180,23.5C 178.984,22.3659 178.317,22.6992 178,24.5C 177.026,22.1224 176.359,22.4557 176,25.5C 175.667,24.8333 175.333,24.1667 175,23.5C 174.385,25.1161 173.385,26.4495 172,27.5C 170.701,27.0338 169.201,27.0338 167.5,27.5C 166.542,27.9528 165.708,28.6195 165,29.5C 163.602,28.9491 162.268,28.6158 161,28.5C 160.333,29.1667 159.667,29.8333 159,30.5C 156.728,29.7598 154.728,29.7598 153,30.5C 151.333,31.5 149.667,32.5 148,33.5C 147,33.1667 146,32.8333 145,32.5C 144,33.5 143,34.5 142,35.5C 141.667,35.1667 141.333,34.8333 141,34.5C 135.865,36.369 131.032,38.7023 126.5,41.5C 125.713,43.1042 124.38,43.7709 122.5,43.5C 123.028,42.2794 123.695,41.1127 124.5,40C 123.756,38.9614 122.756,38.4614 121.5,38.5C 121.973,37.0937 122.973,36.427 124.5,36.5C 125.261,37.3909 126.261,38.0576 127.5,38.5C 131.706,35.8977 136.039,33.5643 140.5,31.5C 141.086,31.7093 141.586,32.0426 142,32.5C 142.918,30.3676 144.251,29.701 146,30.5C 147.314,29.6872 148.481,28.6872 149.5,27.5C 150.086,27.7093 150.586,28.0426 151,28.5C 151.862,26.913 152.529,25.2464 153,23.5C 153.333,24.5 153.667,25.5 154,26.5C 154.36,24.5789 155.194,22.9122 156.5,21.5C 158.325,22.5709 159.492,21.9042 160,19.5C 161.127,22.9069 162.46,22.5736 164,18.5C 164.333,19.1667 164.667,19.8333 165,20.5C 165.667,17.8333 166.333,17.8333 167,20.5C 167.791,19.255 168.291,17.9217 168.5,16.5C 169.222,16.9175 169.722,17.5842 170,18.5C 170.333,17.8333 170.667,17.1667 171,16.5C 172.857,18.7655 174.524,18.4322 176,15.5C 177.422,16.2052 178.755,16.5385 180,16.5C 181.079,14.6063 182.413,14.273 184,15.5C 184.667,12.8333 185.333,12.8333 186,15.5C 186.519,14.4844 187.353,13.8178 188.5,13.5C 191.503,13.8119 192.17,15.1452 190.5,17.5 Z"/></g>
<g><path style="opacity:1" fill="#7a96c9" d="M 198.5,16.5 C 198.833,16.5 199.167,16.5 199.5,16.5C 199.5,20.5 199.5,24.5 199.5,28.5C 198.778,28.0825 198.278,27.4158 198,26.5C 197.333,29.1667 196.667,29.1667 196,26.5C 195.333,27.8333 194.333,28.8333 193,29.5C 190.661,26.8951 188.328,26.5618 186,28.5C 185.333,25.8333 184.667,25.8333 184,28.5C 181.925,25.9719 181.092,26.1386 181.5,29C 180.551,29.6172 179.718,29.4506 179,28.5C 178.309,30.8912 177.309,30.8912 176,28.5C 175.667,30.1667 175.333,31.8333 175,33.5C 174.784,31.6161 174.117,29.9494 173,28.5C 172.333,29.8333 171.667,29.8333 171,28.5C 170.536,29.0944 170.369,29.7611 170.5,30.5C 168.81,30.1436 167.81,29.1436 167.5,27.5C 169.201,27.0338 170.701,27.0338 172,27.5C 173.385,26.4495 174.385,25.1161 175,23.5C 175.333,24.1667 175.667,24.8333 176,25.5C 176.359,22.4557 177.026,22.1224 178,24.5C 178.317,22.6992 178.984,22.3659 180,23.5C 182.104,21.2616 184.438,20.2616 187,20.5C 187.359,17.4557 188.026,17.1224 189,19.5C 189.278,18.5842 189.778,17.9175 190.5,17.5C 191.794,16.7101 192.961,15.7101 194,14.5C 195.333,15.8333 196.667,17.1667 198,18.5C 198.464,17.9056 198.631,17.2389 198.5,16.5 Z"/></g>
<g><path style="opacity:1" fill="#7d89c3" d="M 199.5,28.5 C 199.5,30.8333 199.5,33.1667 199.5,35.5C 198.662,35.8417 198.328,36.5084 198.5,37.5C 197.21,36.9423 196.377,35.9423 196,34.5C 195.667,35.5 195.333,36.5 195,37.5C 194.16,34.5363 193.16,34.203 192,36.5C 191.641,33.4557 190.974,33.1224 190,35.5C 189.333,32.8333 188.667,32.8333 188,35.5C 187.309,33.1088 186.309,33.1088 185,35.5C 184.311,34.6433 183.478,33.9767 182.5,33.5C 178.551,34.141 174.884,34.141 171.5,33.5C 171.443,32.391 171.11,31.391 170.5,30.5C 170.369,29.7611 170.536,29.0944 171,28.5C 171.667,29.8333 172.333,29.8333 173,28.5C 174.117,29.9494 174.784,31.6161 175,33.5C 175.333,31.8333 175.667,30.1667 176,28.5C 177.309,30.8912 178.309,30.8912 179,28.5C 179.718,29.4506 180.551,29.6172 181.5,29C 181.092,26.1386 181.925,25.9719 184,28.5C 184.667,25.8333 185.333,25.8333 186,28.5C 188.328,26.5618 190.661,26.8951 193,29.5C 194.333,28.8333 195.333,27.8333 196,26.5C 196.667,29.1667 197.333,29.1667 198,26.5C 198.278,27.4158 198.778,28.0825 199.5,28.5 Z"/></g>
<g><path style="opacity:0.027" fill="#7c4ca0" d="M 134.5,28.5 C 134.167,29.5 133.5,30.1667 132.5,30.5C 132.5,29.1667 133.167,28.5 134.5,28.5 Z"/></g>
<g><path style="opacity:0.027" fill="#7c3d9a" d="M 131.5,30.5 C 130.833,29.1667 130.833,29.1667 131.5,30.5 Z"/></g>
<g><path style="opacity:0.027" fill="#7c3d9a" d="M 127.5,33.5 C 126.833,32.1667 126.833,32.1667 127.5,33.5 Z"/></g>
<g><path style="opacity:1" fill="#6786b6" d="M 167.5,27.5 C 167.81,29.1436 168.81,30.1436 170.5,30.5C 171.11,31.391 171.443,32.391 171.5,33.5C 171.167,33.5 170.833,33.5 170.5,33.5C 169.317,33.8442 168.484,33.1775 168,31.5C 167.667,32.1667 167.333,32.8333 167,33.5C 165.333,33.1667 163.667,32.8333 162,32.5C 161.085,33.3279 160.419,34.3279 160,35.5C 159.612,34.572 158.945,33.9054 158,33.5C 155.929,34.8207 153.929,35.8207 152,36.5C 150.984,35.3659 150.317,35.6992 150,37.5C 149.692,36.6919 149.192,36.0253 148.5,35.5C 146.622,36.6422 144.788,37.6422 143,38.5C 141.249,37.8263 139.583,37.493 138,37.5C 134.411,39.5297 130.578,40.863 126.5,41.5C 131.032,38.7023 135.865,36.369 141,34.5C 141.333,34.8333 141.667,35.1667 142,35.5C 143,34.5 144,33.5 145,32.5C 146,32.8333 147,33.1667 148,33.5C 149.667,32.5 151.333,31.5 153,30.5C 154.728,29.7598 156.728,29.7598 159,30.5C 159.667,29.8333 160.333,29.1667 161,28.5C 162.268,28.6158 163.602,28.9491 165,29.5C 165.708,28.6195 166.542,27.9528 167.5,27.5 Z"/></g>
<g><path style="opacity:1" fill="#7e79ba" d="M 170.5,33.5 C 170.833,33.5 171.167,33.5 171.5,33.5C 174.884,34.141 178.551,34.141 182.5,33.5C 183.478,33.9767 184.311,34.6433 185,35.5C 186.309,33.1088 187.309,33.1088 188,35.5C 188.667,32.8333 189.333,32.8333 190,35.5C 190.974,33.1224 191.641,33.4557 192,36.5C 193.16,34.203 194.16,34.5363 195,37.5C 195.333,36.5 195.667,35.5 196,34.5C 196.377,35.9423 197.21,36.9423 198.5,37.5C 197.833,40.1667 197.167,42.8333 196.5,45.5C 194.955,44.7703 194.122,43.437 194,41.5C 193.667,41.8333 193.333,42.1667 193,42.5C 191.212,41.6422 189.378,40.6422 187.5,39.5C 185.402,40.4845 183.402,40.1511 181.5,38.5C 180.158,39.9023 179.324,39.5689 179,37.5C 178.333,40.1667 177.667,40.1667 177,37.5C 175.561,39.0139 174.061,39.3473 172.5,38.5C 171.186,39.3128 170.019,40.3128 169,41.5C 167.366,41.2871 165.866,40.9537 164.5,40.5C 163.488,38.8998 163.988,37.5665 166,36.5C 166.667,39.1667 167.333,39.1667 168,36.5C 168.333,37.5 168.667,38.5 169,39.5C 169.813,37.5643 170.313,35.5643 170.5,33.5 Z"/></g>
<g><path style="opacity:1" fill="#7e6bb2" d="M 196.5,45.5 C 195.766,46.7079 195.433,48.0413 195.5,49.5C 194.599,50.2905 193.932,51.2905 193.5,52.5C 193.167,52.5 192.833,52.5 192.5,52.5C 192.657,51.1266 192.49,49.7932 192,48.5C 191.667,48.8333 191.333,49.1667 191,49.5C 190.333,48.1667 189.667,46.8333 189,45.5C 188.667,46.1667 188.333,46.8333 188,47.5C 185.979,45.0034 183.646,43.67 181,43.5C 180.333,46.1667 179.667,46.1667 179,43.5C 178.333,46.1667 177.667,46.1667 177,43.5C 176.667,44.1667 176.333,44.8333 176,45.5C 174.333,40.5728 172.833,40.9061 171.5,46.5C 170.175,47.9526 169.342,47.6192 169,45.5C 167.667,48.1667 166.333,48.1667 165,45.5C 164.667,46.1667 164.333,46.8333 164,47.5C 163.578,45.5743 162.411,44.5743 160.5,44.5C 159.671,43.6676 158.838,44.001 158,45.5C 156.122,44.9473 154.622,43.9473 153.5,42.5C 154.261,41.6091 155.261,40.9424 156.5,40.5C 159.22,40.5531 161.886,40.5531 164.5,40.5C 165.866,40.9537 167.366,41.2871 169,41.5C 170.019,40.3128 171.186,39.3128 172.5,38.5C 174.061,39.3473 175.561,39.0139 177,37.5C 177.667,40.1667 178.333,40.1667 179,37.5C 179.324,39.5689 180.158,39.9023 181.5,38.5C 183.402,40.1511 185.402,40.4845 187.5,39.5C 189.378,40.6422 191.212,41.6422 193,42.5C 193.333,42.1667 193.667,41.8333 194,41.5C 194.122,43.437 194.955,44.7703 196.5,45.5 Z"/></g>
<g><path style="opacity:1" fill="#67a1c3" d="M 121.5,38.5 C 122.756,38.4614 123.756,38.9614 124.5,40C 123.695,41.1127 123.028,42.2794 122.5,43.5C 120.574,45.2927 118.241,46.2927 115.5,46.5C 111.832,47.5555 108.165,48.7222 104.5,50C 102.19,50.4966 99.8568,50.6633 97.5,50.5C 97.9175,49.7784 98.5842,49.2784 99.5,49C 97.8659,48.5065 96.1992,48.3398 94.5,48.5C 103.847,46.3811 112.847,43.0478 121.5,38.5 Z"/></g>
<g><path style="opacity:1" fill="#6169a5" d="M 170.5,33.5 C 170.313,35.5643 169.813,37.5643 169,39.5C 168.667,38.5 168.333,37.5 168,36.5C 167.333,39.1667 166.667,39.1667 166,36.5C 163.988,37.5665 163.488,38.8998 164.5,40.5C 161.886,40.5531 159.22,40.5531 156.5,40.5C 155.261,40.9424 154.261,41.6091 153.5,42.5C 147.683,42.7853 141.183,42.7853 134,42.5C 131.585,43.1319 129.418,44.1319 127.5,45.5C 118.531,48.6458 109.531,51.8125 100.5,55C 97.6285,55.3148 94.7952,55.8148 92,56.5C 83.7425,56.2876 76.0758,56.2876 69,56.5C 66.6667,55.8333 64.3333,55.1667 62,54.5C 57.3037,55.0214 52.4704,55.0214 47.5,54.5C 48.2341,53.2921 48.5674,51.9587 48.5,50.5C 55.2742,52.3827 62.2742,53.3827 69.5,53.5C 69.8333,53.5 70.1667,53.5 70.5,53.5C 78.0238,54.4924 85.8572,54.8258 94,54.5C 97.8568,53.4537 102.023,52.287 106.5,51C 109.823,49.9601 112.823,48.4601 115.5,46.5C 118.241,46.2927 120.574,45.2927 122.5,43.5C 124.38,43.7709 125.713,43.1042 126.5,41.5C 130.578,40.863 134.411,39.5297 138,37.5C 139.583,37.493 141.249,37.8263 143,38.5C 144.788,37.6422 146.622,36.6422 148.5,35.5C 149.192,36.0253 149.692,36.6919 150,37.5C 150.317,35.6992 150.984,35.3659 152,36.5C 153.929,35.8207 155.929,34.8207 158,33.5C 158.945,33.9054 159.612,34.572 160,35.5C 160.419,34.3279 161.085,33.3279 162,32.5C 163.667,32.8333 165.333,33.1667 167,33.5C 167.333,32.8333 167.667,32.1667 168,31.5C 168.484,33.1775 169.317,33.8442 170.5,33.5 Z"/></g>
<g><path style="opacity:0.027" fill="#7c3d9a" d="M 199.5,41.5 C 199.5,41.8333 199.5,42.1667 199.5,42.5C 198.83,42.0187 198.83,41.6853 199.5,41.5 Z"/></g>
<g><path style="opacity:0.027" fill="#7c3d9a" d="M 39.5,42.5 C 40.8333,43.1667 40.8333,43.1667 39.5,42.5 Z"/></g>
<g><path style="opacity:0.027" fill="#7c3d9a" d="M 41.5,42.5 C 42.8333,43.1667 42.8333,43.1667 41.5,42.5 Z"/></g>
<g><path style="opacity:0.027" fill="#7c3d9a" d="M 47.5,42.5 C 48.8333,43.1667 48.8333,43.1667 47.5,42.5 Z"/></g>
<g><path style="opacity:0.027" fill="#7c3d9a" d="M 49.5,42.5 C 50.8333,43.1667 50.8333,43.1667 49.5,42.5 Z"/></g>
<g><path style="opacity:1" fill="#614f96" d="M 153.5,42.5 C 154.622,43.9473 156.122,44.9473 158,45.5C 158.838,44.001 159.671,43.6676 160.5,44.5C 160.611,45.1174 160.944,45.6174 161.5,46C 159.937,46.7589 158.937,47.9256 158.5,49.5C 157.849,48.9094 157.182,48.2427 156.5,47.5C 155.575,48.6405 154.741,48.6405 154,47.5C 153.333,51.5 152.667,51.5 152,47.5C 151.667,48.5 151.333,49.5 151,50.5C 150.768,49.2625 150.268,48.2625 149.5,47.5C 149.631,46.7611 149.464,46.0944 149,45.5C 142.009,44.3497 134.842,44.3497 127.5,45.5C 129.418,44.1319 131.585,43.1319 134,42.5C 141.183,42.7853 147.683,42.7853 153.5,42.5 Z"/></g>
<g><path style="opacity:0.027" fill="#7c3d9a" d="M 33.5,43.5 C 34.8333,44.1667 34.8333,44.1667 33.5,43.5 Z"/></g>
<g><path style="opacity:1" fill="#8561af" d="M 192.5,52.5 C 191.21,53.0577 190.377,54.0577 190,55.5C 187.633,54.1805 185.299,52.1805 183,49.5C 182.722,50.4158 182.222,51.0825 181.5,51.5C 181.631,50.7611 181.464,50.0944 181,49.5C 179,49.5 177,49.5 175,49.5C 174.085,48.6721 173.419,47.6721 173,46.5C 172.193,50.449 171.693,50.449 171.5,46.5C 172.833,40.9061 174.333,40.5728 176,45.5C 176.333,44.8333 176.667,44.1667 177,43.5C 177.667,46.1667 178.333,46.1667 179,43.5C 179.667,46.1667 180.333,46.1667 181,43.5C 183.646,43.67 185.979,45.0034 188,47.5C 188.333,46.8333 188.667,46.1667 189,45.5C 189.667,46.8333 190.333,48.1667 191,49.5C 191.333,49.1667 191.667,48.8333 192,48.5C 192.49,49.7932 192.657,51.1266 192.5,52.5 Z"/></g>
<g><path style="opacity:0.027" fill="#7c3d9a" d="M 28.5,44.5 C 29.8333,45.1667 29.8333,45.1667 28.5,44.5 Z"/></g>
<g><path style="opacity:1" fill="#7c50a2" d="M 160.5,44.5 C 162.411,44.5743 163.578,45.5743 164,47.5C 164.333,46.8333 164.667,46.1667 165,45.5C 166.333,48.1667 167.667,48.1667 169,45.5C 169.342,47.6192 170.175,47.9526 171.5,46.5C 171.693,50.449 172.193,50.449 173,46.5C 173.419,47.6721 174.085,48.6721 175,49.5C 177,49.5 179,49.5 181,49.5C 181.464,50.0944 181.631,50.7611 181.5,51.5C 180.317,51.1558 179.484,51.8225 179,53.5C 178.667,52.8333 178.333,52.1667 178,51.5C 177.338,52.9839 176.504,54.3172 175.5,55.5C 174.778,55.0825 174.278,54.4158 174,53.5C 173.333,56.1667 172.667,56.1667 172,53.5C 171.283,54.0442 170.783,54.7109 170.5,55.5C 168.79,53.8004 166.79,52.4671 164.5,51.5C 162.216,52.416 161.049,51.416 161,48.5C 160.658,50.6192 159.825,50.9526 158.5,49.5C 158.937,47.9256 159.937,46.7589 161.5,46C 160.944,45.6174 160.611,45.1174 160.5,44.5 Z"/></g>
<g><path style="opacity:1" fill="#6287b4" d="M 39.5,44.5 C 44.5947,44.2213 49.5947,44.5546 54.5,45.5C 54.0825,46.2216 53.4158,46.7216 52.5,47C 52.8333,47.3333 53.1667,47.6667 53.5,48C 59.0429,49.9115 64.3762,51.7449 69.5,53.5C 62.2742,53.3827 55.2742,52.3827 48.5,50.5C 47.7784,50.9175 47.2784,51.5842 47,52.5C 44.6262,50.2302 41.7928,48.8968 38.5,48.5C 38.4326,47.0413 38.7659,45.7079 39.5,44.5 Z"/></g>
<g><path style="opacity:0.027" fill="#7c3d9a" d="M 66.5,45.5 C 67.8333,46.1667 67.8333,46.1667 66.5,45.5 Z"/></g>
<g><path style="opacity:0.027" fill="#7c3d9a" d="M 73.5,46.5 C 74.8333,47.1667 74.8333,47.1667 73.5,46.5 Z"/></g>
<g><path style="opacity:0.027" fill="#7c3d9a" d="M 90.5,46.5 C 91.8333,47.1667 91.8333,47.1667 90.5,46.5 Z"/></g>
<g><path style="opacity:1" fill="#6e3a8f" d="M 149.5,47.5 C 150.268,48.2625 150.768,49.2625 151,50.5C 151.333,49.5 151.667,48.5 152,47.5C 152.667,51.5 153.333,51.5 154,47.5C 154.741,48.6405 155.575,48.6405 156.5,47.5C 157.182,48.2427 157.849,48.9094 158.5,49.5C 159.825,50.9526 160.658,50.6192 161,48.5C 161.049,51.416 162.216,52.416 164.5,51.5C 166.79,52.4671 168.79,53.8004 170.5,55.5C 171.547,56.0778 171.38,56.7445 170,57.5C 168.221,54.7236 167.221,55.0569 167,58.5C 166.193,54.551 165.693,54.551 165.5,58.5C 164.833,59.5 164.167,60.5 163.5,61.5C 163.587,58.4017 163.087,58.0684 162,60.5C 159.877,59.1166 158.877,57.45 159,55.5C 157.984,56.6341 157.317,56.3008 157,54.5C 156.667,55.1667 156.333,55.8333 156,56.5C 155.333,55.1667 154.667,55.1667 154,56.5C 153.292,55.6195 152.458,54.9528 151.5,54.5C 151.013,53.5266 150.513,52.5266 150,51.5C 149.581,52.6721 148.915,53.6721 148,54.5C 145.961,52.1255 143.628,50.1255 141,48.5C 140.667,48.8333 140.333,49.1667 140,49.5C 138.47,48.364 137.137,47.364 136,46.5C 134.715,46.5979 133.549,46.5979 132.5,46.5C 135.77,45.5892 138.937,45.5892 142,46.5C 144.454,47.1981 146.787,48.1981 149,49.5C 149.464,48.9056 149.631,48.2389 149.5,47.5 Z"/></g>
<g><path style="opacity:0.027" fill="#7c3d9a" d="M 196.5,47.5 C 197.833,48.1667 197.833,48.1667 196.5,47.5 Z"/></g>
<g><path style="opacity:1" fill="#5e3fa1" d="M 22.5,49.5 C 24.0133,50.3093 25.6799,50.4759 27.5,50C 28.1905,51.0674 28.6905,52.2341 29,53.5C 29.6667,49.5 30.3333,49.5 31,53.5C 32.5655,52.9394 33.8989,53.6061 35,55.5C 36.3333,52.8333 37.6667,52.8333 39,55.5C 40.4823,53.2189 42.149,53.2189 44,55.5C 44.3333,54.8333 44.6667,54.1667 45,53.5C 45.7083,54.3805 46.5416,55.0472 47.5,55.5C 46.9217,57.4435 45.9217,57.7768 44.5,56.5C 43.2054,57.0983 41.8721,57.5983 40.5,58C 41.056,58.3826 41.3893,58.8826 41.5,59.5C 41.1667,59.5 40.8333,59.5 40.5,59.5C 39.7784,59.9175 39.2784,60.5842 39,61.5C 38.6667,60.8333 38.3333,60.1667 38,59.5C 36.4748,59.1119 34.8082,59.1119 33,59.5C 32.6667,58.5 32.3333,57.5 32,56.5C 31.5814,57.6721 30.9147,58.6721 30,59.5C 26.0753,58.4337 21.9086,58.4337 17.5,59.5C 15.3895,58.0395 13.3895,57.2062 11.5,57C 12.3805,56.2917 13.0472,55.4584 13.5,54.5C 14.3065,53.2719 15.3065,52.2719 16.5,51.5C 18.4214,50.6373 20.4214,49.9707 22.5,49.5 Z"/></g>
<g><path style="opacity:0.027" fill="#7c3d9a" d="M 195.5,49.5 C 196.833,50.1667 196.833,50.1667 195.5,49.5 Z"/></g>
<g><path style="opacity:0.027" fill="#7c3d9a" d="M 16.5,51.5 C 15.8333,50.1667 15.8333,50.1667 16.5,51.5 Z"/></g>
<g><path style="opacity:1" fill="#6355a4" d="M 39.5,44.5 C 38.7659,45.7079 38.4326,47.0413 38.5,48.5C 41.7928,48.8968 44.6262,50.2302 47,52.5C 47.2784,51.5842 47.7784,50.9175 48.5,50.5C 48.5674,51.9587 48.2341,53.2921 47.5,54.5C 47.5,54.8333 47.5,55.1667 47.5,55.5C 46.5416,55.0472 45.7083,54.3805 45,53.5C 44.6667,54.1667 44.3333,54.8333 44,55.5C 42.149,53.2189 40.4823,53.2189 39,55.5C 37.6667,52.8333 36.3333,52.8333 35,55.5C 33.8989,53.6061 32.5655,52.9394 31,53.5C 30.3333,49.5 29.6667,49.5 29,53.5C 28.6905,52.2341 28.1905,51.0674 27.5,50C 25.6799,50.4759 24.0133,50.3093 22.5,49.5C 27.7426,46.7682 33.4092,45.1015 39.5,44.5 Z"/></g>
<g><path style="opacity:1" fill="#6caac9" d="M 54.5,45.5 C 67.693,48.0951 81.0263,49.0951 94.5,48.5C 96.1992,48.3398 97.8659,48.5065 99.5,49C 98.5842,49.2784 97.9175,49.7784 97.5,50.5C 88.4209,51.8831 79.4209,52.8831 70.5,53.5C 70.1667,53.5 69.8333,53.5 69.5,53.5C 64.3762,51.7449 59.0429,49.9115 53.5,48C 53.1667,47.6667 52.8333,47.3333 52.5,47C 53.4158,46.7216 54.0825,46.2216 54.5,45.5 Z"/></g>
<g><path style="opacity:1" fill="#562177" d="M 132.5,46.5 C 133.549,46.5979 134.715,46.5979 136,46.5C 137.137,47.364 138.47,48.364 140,49.5C 140.333,49.1667 140.667,48.8333 141,48.5C 143.628,50.1255 145.961,52.1255 148,54.5C 148.915,53.6721 149.581,52.6721 150,51.5C 150.513,52.5266 151.013,53.5266 151.5,54.5C 151.19,55.7383 150.69,55.7383 150,54.5C 149.536,55.0944 149.369,55.7611 149.5,56.5C 148.883,56.3893 148.383,56.056 148,55.5C 147.722,56.4158 147.222,57.0825 146.5,57.5C 146.279,54.9028 145.779,54.9028 145,57.5C 142.364,55.422 139.864,53.0887 137.5,50.5C 135.902,52.9734 134.402,52.9734 133,50.5C 131.667,50.5 130.333,50.5 129,50.5C 128.333,53.1667 127.667,53.1667 127,50.5C 126.333,53.1667 125.667,53.1667 125,50.5C 124.667,51.1667 124.333,51.8333 124,52.5C 122.667,52.5 121.333,52.5 120,52.5C 119.085,53.3279 118.419,54.3279 118,55.5C 117.667,54.8333 117.333,54.1667 117,53.5C 112.457,55.4377 107.791,57.771 103,60.5C 100.333,61.8333 97.6667,61.8333 95,60.5C 94,61.1667 93,61.8333 92,62.5C 90.4345,63.0606 89.1011,62.3939 88,60.5C 87.3333,61.1667 86.6667,61.8333 86,62.5C 84.522,62.2102 83.022,62.2102 81.5,62.5C 80.7784,62.0825 80.2784,61.4158 80,60.5C 79.3333,63.1667 78.6667,63.1667 78,60.5C 76.7318,60.6158 75.3985,60.9491 74,61.5C 73.6667,60.8333 73.3333,60.1667 73,59.5C 71.6667,59.5 70.3333,59.5 69,59.5C 68.7216,60.4158 68.2216,61.0825 67.5,61.5C 67.631,60.7611 67.4643,60.0944 67,59.5C 63.895,60.0728 60.7283,60.4062 57.5,60.5C 52.3382,61.6634 47.8382,63.9968 44,67.5C 43.0546,67.0946 42.3879,66.428 42,65.5C 41.7679,66.7375 41.2679,67.7375 40.5,68.5C 39.7321,69.2625 39.2321,70.2625 39,71.5C 38.6924,70.6919 38.1924,70.0253 37.5,69.5C 36.5745,70.6405 35.7412,70.6405 35,69.5C 34.0793,70.7083 33.5793,72.0416 33.5,73.5C 31.9081,72.3984 31.0748,73.065 31,75.5C 30.2152,73.751 29.3818,72.0843 28.5,70.5C 28.4346,70.0618 28.6012,69.7284 29,69.5C 29.3333,70.1667 29.6667,70.8333 30,71.5C 31.7854,67.9919 34.6188,65.4919 38.5,64C 37.6598,62.3335 38.1598,62.1669 40,63.5C 41.5106,62.436 41.6772,61.1026 40.5,59.5C 40.8333,59.5 41.1667,59.5 41.5,59.5C 46.1786,58.3933 51.0119,58.3933 56,59.5C 56.3333,58.8333 56.6667,58.1667 57,57.5C 70.6786,58.212 83.3453,58.8787 95,59.5C 108.876,54.5429 121.376,50.2095 132.5,46.5 Z"/></g>
<g><path style="opacity:1" fill="#608db6" d="M 115.5,46.5 C 112.823,48.4601 109.823,49.9601 106.5,51C 102.023,52.287 97.8568,53.4537 94,54.5C 85.8572,54.8258 78.0238,54.4924 70.5,53.5C 79.4209,52.8831 88.4209,51.8831 97.5,50.5C 99.8568,50.6633 102.19,50.4966 104.5,50C 108.165,48.7222 111.832,47.5555 115.5,46.5 Z"/></g>
<g><path style="opacity:1" fill="#8e4fa6" d="M 192.5,52.5 C 192.833,52.5 193.167,52.5 193.5,52.5C 192.637,53.9403 192.637,55.2736 193.5,56.5C 193.154,57.6956 192.654,57.6956 192,56.5C 190.706,57.8544 190.54,59.1877 191.5,60.5C 191.154,61.6956 190.654,61.6956 190,60.5C 189.536,61.0944 189.369,61.7611 189.5,62.5C 188.167,62.8333 188.167,63.1667 189.5,63.5C 188.833,64.5 188.167,65.5 187.5,66.5C 186.833,67.1667 186.167,67.8333 185.5,68.5C 185.176,66.0359 185.009,63.3692 185,60.5C 184.667,61.8333 184.333,63.1667 184,64.5C 183.517,63.552 183.351,62.552 183.5,61.5C 183.607,59.6214 183.107,59.2881 182,60.5C 181.363,58.6969 180.197,57.3636 178.5,56.5C 177.119,58.9288 176.119,58.5954 175.5,55.5C 176.504,54.3172 177.338,52.9839 178,51.5C 178.333,52.1667 178.667,52.8333 179,53.5C 179.484,51.8225 180.317,51.1558 181.5,51.5C 182.222,51.0825 182.722,50.4158 183,49.5C 185.299,52.1805 187.633,54.1805 190,55.5C 190.377,54.0577 191.21,53.0577 192.5,52.5 Z"/></g>
<g><path style="opacity:1" fill="#8b3f9d" d="M 175.5,55.5 C 176.119,58.5954 177.119,58.9288 178.5,56.5C 180.197,57.3636 181.363,58.6969 182,60.5C 183.107,59.2881 183.607,59.6214 183.5,61.5C 182.542,61.9528 181.708,62.6195 181,63.5C 180.224,60.3514 178.724,59.8514 176.5,62C 178.007,62.8373 178.507,64.0039 178,65.5C 176.981,64.3128 175.814,63.3128 174.5,62.5C 173.459,64.9913 172.626,64.9913 172,62.5C 171.667,63.1667 171.333,63.8333 171,64.5C 169.384,63.4552 167.717,62.4552 166,61.5C 165.517,60.552 165.351,59.552 165.5,58.5C 165.693,54.551 166.193,54.551 167,58.5C 167.221,55.0569 168.221,54.7236 170,57.5C 171.38,56.7445 171.547,56.0778 170.5,55.5C 170.783,54.7109 171.283,54.0442 172,53.5C 172.667,56.1667 173.333,56.1667 174,53.5C 174.278,54.4158 174.778,55.0825 175.5,55.5 Z"/></g>
<g><path style="opacity:1" fill="#722685" d="M 151.5,54.5 C 152.458,54.9528 153.292,55.6195 154,56.5C 154.667,55.1667 155.333,55.1667 156,56.5C 156.333,55.8333 156.667,55.1667 157,54.5C 157.317,56.3008 157.984,56.6341 159,55.5C 158.877,57.45 159.877,59.1166 162,60.5C 163.087,58.0684 163.587,58.4017 163.5,61.5C 162.488,62.8717 161.488,64.205 160.5,65.5C 160.631,64.7611 160.464,64.0944 160,63.5C 158.654,66.2494 157.32,66.5828 156,64.5C 154.84,66.797 153.84,66.4637 153,63.5C 152.667,64.1667 152.333,64.8333 152,65.5C 151.601,65.2716 151.435,64.9382 151.5,64.5C 151.037,61.779 150.371,59.1123 149.5,56.5C 149.369,55.7611 149.536,55.0944 150,54.5C 150.69,55.7383 151.19,55.7383 151.5,54.5 Z"/></g>
<g><path style="opacity:1" fill="#5a418c" d="M 149.5,47.5 C 149.631,48.2389 149.464,48.9056 149,49.5C 146.787,48.1981 144.454,47.1981 142,46.5C 138.937,45.5892 135.77,45.5892 132.5,46.5C 121.376,50.2095 108.876,54.5429 95,59.5C 83.3453,58.8787 70.6786,58.212 57,57.5C 56.6667,58.1667 56.3333,58.8333 56,59.5C 51.0119,58.3933 46.1786,58.3933 41.5,59.5C 41.3893,58.8826 41.056,58.3826 40.5,58C 41.8721,57.5983 43.2054,57.0983 44.5,56.5C 45.9217,57.7768 46.9217,57.4435 47.5,55.5C 47.5,55.1667 47.5,54.8333 47.5,54.5C 52.4704,55.0214 57.3037,55.0214 62,54.5C 64.3333,55.1667 66.6667,55.8333 69,56.5C 76.0758,56.2876 83.7425,56.2876 92,56.5C 94.7952,55.8148 97.6285,55.3148 100.5,55C 109.531,51.8125 118.531,48.6458 127.5,45.5C 134.842,44.3497 142.009,44.3497 149,45.5C 149.464,46.0944 149.631,46.7611 149.5,47.5 Z"/></g>
<g><path style="opacity:1" fill="#5d2a9a" d="M 13.5,54.5 C 13.0472,55.4584 12.3805,56.2917 11.5,57C 13.3895,57.2062 15.3895,58.0395 17.5,59.5C 21.9086,58.4337 26.0753,58.4337 30,59.5C 30.9147,58.6721 31.5814,57.6721 32,56.5C 32.3333,57.5 32.6667,58.5 33,59.5C 34.8082,59.1119 36.4748,59.1119 38,59.5C 38.3333,60.1667 38.6667,60.8333 39,61.5C 39.2784,60.5842 39.7784,59.9175 40.5,59.5C 41.6772,61.1026 41.5106,62.436 40,63.5C 38.1598,62.1669 37.6598,62.3335 38.5,64C 34.6188,65.4919 31.7854,67.9919 30,71.5C 29.6667,70.8333 29.3333,70.1667 29,69.5C 28.6012,69.7284 28.4346,70.0618 28.5,70.5C 26.8657,71.9549 25.5324,73.6216 24.5,75.5C 24.6567,74.1266 24.49,72.7932 24,71.5C 23.3333,73.5 22.6667,75.5 22,77.5C 21.3333,75.5 20.6667,73.5 20,71.5C 18.1724,73.8073 16.5057,73.474 15,70.5C 14.3333,73.1667 13.6667,73.1667 13,70.5C 11.984,71.6341 11.3173,71.3008 11,69.5C 9.34831,70.0678 7.68164,71.4011 6,73.5C 5.66667,72.8333 5.33333,72.1667 5,71.5C 3.24989,74.3188 1.41656,76.9855 -0.5,79.5C -0.5,77.1667 -0.5,74.8333 -0.5,72.5C 1.00775,70.8292 1.34108,68.9959 0.5,67C 2.60511,65.8066 4.27177,64.1399 5.5,62C 5.16667,61.6667 4.83333,61.3333 4.5,61C 7.39679,58.59 10.3968,56.4233 13.5,54.5 Z"/></g>
<g><path style="opacity:1" fill="#46013e" d="M 128.5,78.5 C 127.542,78.9528 126.708,79.6195 126,80.5C 127.008,78.634 126.508,77.3007 124.5,76.5C 123.591,74.2696 123.258,72.2696 123.5,70.5C 123.384,68.425 122.884,66.425 122,64.5C 120,67.1667 118,67.1667 116,64.5C 115.072,66.3348 113.906,66.6682 112.5,65.5C 109.006,66.2603 105.506,67.2603 102,68.5C 89.6188,68.1007 78.2855,67.7674 68,67.5C 65.2876,68.4474 62.4542,69.9474 59.5,72C 59.8333,72.3333 60.1667,72.6667 60.5,73C 59.0611,73.9906 58.0611,75.324 57.5,77C 56.8919,79.1841 57.5586,81.1841 59.5,83C 56.9659,85.7467 56.9659,88.4133 59.5,91C 58.3659,92.016 58.6992,92.6827 60.5,93C 57.8333,93.6667 57.8333,94.3333 60.5,95C 60.1667,95.3333 59.8333,95.6667 59.5,96C 63.5,96.6667 63.5,97.3333 59.5,98C 62.1019,98.935 63.6019,100.768 64,103.5C 64.3333,102.833 64.6667,102.167 65,101.5C 67.6751,106.664 71.1751,110.331 75.5,112.5C 77.8068,112.77 79.9735,114.103 82,116.5C 83,116.167 84,115.833 85,115.5C 85.6667,118.167 86.3333,118.167 87,115.5C 87.7083,116.381 88.5416,117.047 89.5,117.5C 89.9382,117.435 90.2716,117.601 90.5,118C 89.6919,118.308 89.0253,118.808 88.5,119.5C 89.3629,120.726 89.3629,122.06 88.5,123.5C 87.7784,123.082 87.2784,122.416 87,121.5C 86.3333,124.167 85.6667,124.167 85,121.5C 83.984,122.634 83.3173,122.301 83,120.5C 82.5357,121.094 82.369,121.761 82.5,122.5C 81.7784,122.082 81.2784,121.416 81,120.5C 80.6667,120.833 80.3333,121.167 80,121.5C 78.3834,120.359 76.55,119.526 74.5,119C 71.6697,117.509 69.1697,115.009 67,111.5C 66.6667,112.167 66.3333,112.833 66,113.5C 65.6667,112.167 65.3333,110.833 65,109.5C 64.6667,110.167 64.3333,110.833 64,111.5C 62.4931,107.851 60.1597,104.185 57,100.5C 54.7402,94.3006 53.2402,88.1339 52.5,82C 53.1667,81.3333 53.8333,80.6667 54.5,80C 53.3707,76.5288 54.204,73.0288 57,69.5C 57.9138,70.6537 58.7471,70.487 59.5,69C 59.1667,68.6667 58.8333,68.3333 58.5,68C 61.7398,66.1056 65.2398,64.939 69,64.5C 71.4785,65.4467 73.8118,65.4467 76,64.5C 77.6667,65.1667 79.3333,65.8333 81,66.5C 86.8785,66.2796 92.5452,66.2796 98,66.5C 99.3333,65.8333 100.667,65.1667 102,64.5C 104.188,65.4467 106.522,65.4467 109,64.5C 113.286,63.2266 117.786,61.5599 122.5,59.5C 123.478,59.9767 124.311,60.6433 125,61.5C 126.016,60.3659 126.683,60.6992 127,62.5C 127.805,60.0989 128.638,60.2656 129.5,63C 129.255,64.9114 129.255,66.9114 129.5,69C 128.833,69.3333 128.167,69.6667 127.5,70C 129.158,70.7253 129.658,71.892 129,73.5C 127.997,71.0649 127.497,71.3982 127.5,74.5C 127.623,75.9245 127.957,77.2579 128.5,78.5 Z"/></g>
<g><path style="opacity:1" fill="#953095" d="M 165.5,58.5 C 165.351,59.552 165.517,60.552 166,61.5C 167.717,62.4552 169.384,63.4552 171,64.5C 171.333,63.8333 171.667,63.1667 172,62.5C 172.626,64.9913 173.459,64.9913 174.5,62.5C 175.814,63.3128 176.981,64.3128 178,65.5C 178.507,64.0039 178.007,62.8373 176.5,62C 178.724,59.8514 180.224,60.3514 181,63.5C 181.708,62.6195 182.542,61.9528 183.5,61.5C 183.351,62.552 183.517,63.552 184,64.5C 184.333,63.1667 184.667,61.8333 185,60.5C 185.009,63.3692 185.176,66.0359 185.5,68.5C 185.799,69.7603 185.799,70.927 185.5,72C 182.598,73.36 180.932,75.1934 180.5,77.5C 180.509,75.6916 180.009,74.0249 179,72.5C 178.333,76.5 177.667,76.5 177,72.5C 176.667,73.1667 176.333,73.8333 176,74.5C 175.581,70.1482 174.914,69.8149 174,73.5C 173.667,72.8333 173.333,72.1667 173,71.5C 172.15,72.4239 171.15,72.4239 170,71.5C 168.75,75.7852 167.084,75.4519 165,70.5C 164.209,71.745 163.709,73.0783 163.5,74.5C 163.167,74.5 162.833,74.5 162.5,74.5C 161.402,73.603 161.402,72.7697 162.5,72C 160.109,70.6914 160.109,69.6914 162.5,69C 159.833,68.3333 159.833,67.6667 162.5,67C 161.584,66.7216 160.918,66.2216 160.5,65.5C 161.488,64.205 162.488,62.8717 163.5,61.5C 164.167,60.5 164.833,59.5 165.5,58.5 Z"/></g>
<g><path style="opacity:0.027" fill="#7c3d9a" d="M 189.5,62.5 C 190.833,63.1667 190.833,63.1667 189.5,62.5 Z"/></g>
<g><path style="opacity:0.027" fill="#7c3d9a" d="M 187.5,66.5 C 188.833,67.1667 188.833,67.1667 187.5,66.5 Z"/></g>
<g><path style="opacity:1" fill="#400024" d="M 104.5,71.5 C 101.664,71.2022 101.164,71.8689 103,73.5C 106.153,72.6984 109.153,72.365 112,72.5C 112.706,74.9552 111.873,76.6219 109.5,77.5C 108.726,78.1471 107.726,78.4805 106.5,78.5C 103.841,76.228 101.007,74.8946 98,74.5C 94.5361,74.3454 91.0361,74.3454 87.5,74.5C 86.7784,74.9175 86.2784,75.5842 86,76.5C 85.3261,75.4216 84.3261,74.7549 83,74.5C 81.3313,75.1662 79.8313,75.1662 78.5,74.5C 77.4593,76.9913 76.6259,76.9913 76,74.5C 75.3333,78.5 74.6667,78.5 74,74.5C 73.6411,77.5443 72.9745,77.8776 72,75.5C 71.0379,78.6117 69.8712,81.6117 68.5,84.5C 69.572,88.4024 71.9053,91.2358 75.5,93C 75.1667,93.3333 74.8333,93.6667 74.5,94C 76.9979,95.9818 79.6645,97.4818 82.5,98.5C 81.6554,99.6715 80.9887,101.005 80.5,102.5C 78.9081,101.398 78.0748,102.065 78,104.5C 77.3333,103.167 76.6667,103.167 76,104.5C 74.9153,102.627 73.582,100.96 72,99.5C 71.6667,99.8333 71.3333,100.167 71,100.5C 70,99.1667 69,97.8333 68,96.5C 67.6012,96.7284 67.4346,97.0618 67.5,97.5C 66.4156,95.1849 64.749,93.3516 62.5,92C 65.1667,91.3333 65.1667,90.6667 62.5,90C 62.3062,88.5701 62.3062,87.0701 62.5,85.5C 60.0087,84.4593 60.0087,83.6259 62.5,83C 59.8333,82.3333 59.8333,81.6667 62.5,81C 59.8333,80.3333 59.8333,79.6667 62.5,79C 59.8333,78.3333 59.8333,77.6667 62.5,77C 62.1667,76.6667 61.8333,76.3333 61.5,76C 63.8633,75.4115 64.8633,73.9115 64.5,71.5C 66.2012,71.0338 67.7012,71.0338 69,71.5C 69.6667,70.8333 70.3333,70.1667 71,69.5C 74.1402,69.8876 77.1402,69.8876 80,69.5C 80.6667,70.1667 81.3333,70.8333 82,71.5C 89.3526,71.4615 96.8526,71.4615 104.5,71.5 Z"/></g>
<g><path style="opacity:1" fill="#500760" d="M 67.5,61.5 C 60.3645,61.7125 54.5311,65.3792 50,72.5C 48.8445,76.6941 47.6778,80.5274 46.5,84C 48.5127,84.8753 48.5127,86.2087 46.5,88C 49.0443,90.2221 49.0443,92.3888 46.5,94.5C 47.7472,96.323 48.4139,98.323 48.5,100.5C 48.2454,101.936 47.9121,103.436 47.5,105C 49.8954,107.444 51.5621,110.444 52.5,114C 52.1667,114.333 51.8333,114.667 51.5,115C 53.317,116.8 54.4837,118.966 55,121.5C 55.7504,122.126 56.5838,122.626 57.5,123C 57.5,124 57.5,125 57.5,126C 59.492,126.574 60.992,127.741 62,129.5C 62.3333,129.167 62.6667,128.833 63,128.5C 63.5079,130.904 64.6745,131.571 66.5,130.5C 68.7328,131.742 70.8995,133.076 73,134.5C 75.6002,133.693 77.9336,134.36 80,136.5C 82.6124,135.327 85.2791,135.994 88,138.5C 90.9024,137.457 93.9024,138.124 97,140.5C 98.6667,140.167 100.333,139.833 102,139.5C 103.667,140.5 105.333,141.5 107,142.5C 107.689,141.643 108.522,140.977 109.5,140.5C 111.07,140.694 112.57,140.694 114,140.5C 114.779,143.097 115.279,143.097 115.5,140.5C 116.222,140.082 116.722,139.416 117,138.5C 119.351,140.111 121.518,141.111 123.5,141.5C 124.833,142.5 124.833,143.5 123.5,144.5C 121.578,146.581 119.411,146.581 117,144.5C 115.149,146.781 113.482,146.781 112,144.5C 110.68,146.583 109.346,146.249 108,143.5C 107.333,144.167 106.667,144.833 106,145.5C 101.431,145.152 96.9313,143.818 92.5,141.5C 89.2179,142.033 86.0512,141.366 83,139.5C 80.8103,140.584 79.1437,139.917 78,137.5C 77.3333,138.167 76.6667,138.833 76,139.5C 72.6711,138.115 69.5045,136.448 66.5,134.5C 65.5224,134.977 64.6891,135.643 64,136.5C 62.6802,134.183 61.0136,132.183 59,130.5C 58.6667,130.833 58.3333,131.167 58,131.5C 57.1667,130 56,128.833 54.5,128C 54.8333,127.667 55.1667,127.333 55.5,127C 54.5838,126.626 53.7504,126.126 53,125.5C 52.7282,122.568 51.5615,120.068 49.5,118C 49.8333,117.667 50.1667,117.333 50.5,117C 47.508,115.893 46.8413,114.226 48.5,112C 47.8333,111.667 47.1667,111.333 46.5,111C 46.2549,109.089 46.2549,107.089 46.5,105C 44.6992,104.683 44.3659,104.016 45.5,103C 43.3679,97.3157 42.7012,91.8157 43.5,86.5C 43.1822,85.3527 42.5156,84.5194 41.5,84C 44.2494,82.6538 44.5828,81.3204 42.5,80C 43.1667,79.6667 43.8333,79.3333 44.5,79C 44.5,77.3333 44.5,75.6667 44.5,74C 45.1667,72.6667 46.1667,71.6667 47.5,71C 47.1667,70.6667 46.8333,70.3333 46.5,70C 49.8135,66.5054 53.4801,63.3387 57.5,60.5C 60.7283,60.4062 63.895,60.0728 67,59.5C 67.4643,60.0944 67.631,60.7611 67.5,61.5 Z"/></g>
<g><path style="opacity:1" fill="#540967" d="M 57.5,60.5 C 53.4801,63.3387 49.8135,66.5054 46.5,70C 46.8333,70.3333 47.1667,70.6667 47.5,71C 46.1667,71.6667 45.1667,72.6667 44.5,74C 44.5,75.6667 44.5,77.3333 44.5,79C 43.8333,79.3333 43.1667,79.6667 42.5,80C 44.5828,81.3204 44.2494,82.6538 41.5,84C 42.5156,84.5194 43.1822,85.3527 43.5,86.5C 42.7012,91.8157 43.3679,97.3157 45.5,103C 44.3659,104.016 44.6992,104.683 46.5,105C 46.2549,107.089 46.2549,109.089 46.5,111C 47.1667,111.333 47.8333,111.667 48.5,112C 46.8413,114.226 47.508,115.893 50.5,117C 50.1667,117.333 49.8333,117.667 49.5,118C 51.5615,120.068 52.7282,122.568 53,125.5C 53.7504,126.126 54.5838,126.626 55.5,127C 55.1667,127.333 54.8333,127.667 54.5,128C 56,128.833 57.1667,130 58,131.5C 58.3333,131.167 58.6667,130.833 59,130.5C 61.0136,132.183 62.6802,134.183 64,136.5C 64.6891,135.643 65.5224,134.977 66.5,134.5C 69.5045,136.448 72.6711,138.115 76,139.5C 76.6667,138.833 77.3333,138.167 78,137.5C 79.1437,139.917 80.8103,140.584 83,139.5C 86.0512,141.366 89.2179,142.033 92.5,141.5C 96.9313,143.818 101.431,145.152 106,145.5C 106.667,144.833 107.333,144.167 108,143.5C 109.346,146.249 110.68,146.583 112,144.5C 113.482,146.781 115.149,146.781 117,144.5C 119.411,146.581 121.578,146.581 123.5,144.5C 125.381,144.544 127.215,144.878 129,145.5C 129.705,143.014 130.538,143.014 131.5,145.5C 130.17,147.711 128.67,149.044 127,149.5C 126.333,146.833 125.667,146.833 125,149.5C 123.732,149.384 122.398,149.051 121,148.5C 120.085,149.328 119.419,150.328 119,151.5C 118.667,150.833 118.333,150.167 118,149.5C 115.76,149.09 113.593,149.757 111.5,151.5C 111.704,150.471 111.204,149.471 110,148.5C 109.333,149.833 108.667,149.833 108,148.5C 107.779,151.943 106.779,152.276 105,149.5C 103.602,150.051 102.268,150.384 101,150.5C 99.6072,147.875 98.4405,147.875 97.5,150.5C 97.631,149.761 97.4643,149.094 97,148.5C 95.7318,148.616 94.3985,148.949 93,149.5C 91.9207,147.606 90.5874,147.273 89,148.5C 88,147.833 87,147.167 86,146.5C 84,146.5 82,146.5 80,146.5C 79.6827,144.699 79.016,144.366 78,145.5C 76.6667,144.833 75.3333,144.167 74,143.5C 73.6667,144.167 73.3333,144.833 73,145.5C 71.6538,142.751 70.3204,142.417 69,144.5C 68.3333,141.833 67.6667,141.833 67,144.5C 65.9032,142.947 64.5699,141.614 63,140.5C 61.6667,140.5 60.3333,140.5 59,140.5C 57.6667,139.167 56.3333,137.833 55,136.5C 52.968,138.768 51.6346,138.102 51,134.5C 49.5806,133.54 48.0806,132.707 46.5,132C 47.1667,131.667 47.8333,131.333 48.5,131C 46.8004,127.98 45.1337,124.98 43.5,122C 43.9574,121.586 44.2907,121.086 44.5,120.5C 41.3488,114.219 40.0155,108.052 40.5,102C 39.8333,101.333 39.1667,100.667 38.5,100C 39.7919,95.709 39.7919,91.3757 38.5,87C 39.1667,86.3333 39.8333,85.6667 40.5,85C 39.2899,83.9609 38.2899,82.7942 37.5,81.5C 39.7645,81.5594 40.0978,80.7261 38.5,79C 39.4841,77.3435 40.4841,75.6768 41.5,74C 41.33,72.4305 40.9967,70.5972 40.5,68.5C 41.2679,67.7375 41.7679,66.7375 42,65.5C 42.3879,66.428 43.0546,67.0946 44,67.5C 47.8382,63.9968 52.3382,61.6634 57.5,60.5 Z"/></g>
<g><path style="opacity:1" fill="#390015" d="M 87.5,74.5 C 87.7496,75.9221 88.583,76.9221 90,77.5C 93.0064,76.0624 96.0064,76.7291 99,79.5C 99.414,79.0426 99.914,78.7093 100.5,78.5C 101.584,79.6651 102.417,80.9984 103,82.5C 103.805,80.0989 104.638,80.2656 105.5,83C 102.077,89.1225 97.5771,94.2892 92,98.5C 90.6054,97.1854 89.6054,97.5188 89,99.5C 88.6667,98.8333 88.3333,98.1667 88,97.5C 87,98.8333 86,100.167 85,101.5C 84.3333,97.5 83.6667,97.5 83,101.5C 82.5172,100.552 82.3505,99.552 82.5,98.5C 79.6645,97.4818 76.9979,95.9818 74.5,94C 74.8333,93.6667 75.1667,93.3333 75.5,93C 71.9053,91.2358 69.572,88.4024 68.5,84.5C 69.8712,81.6117 71.0379,78.6117 72,75.5C 72.9745,77.8776 73.6411,77.5443 74,74.5C 74.6667,78.5 75.3333,78.5 76,74.5C 76.6259,76.9913 77.4593,76.9913 78.5,74.5C 79.8313,75.1662 81.3313,75.1662 83,74.5C 84.3261,74.7549 85.3261,75.4216 86,76.5C 86.2784,75.5842 86.7784,74.9175 87.5,74.5 Z"/></g>
<g><path style="opacity:0.996" fill="#a5238e" d="M 180.5,77.5 C 180.5,77.8333 180.5,78.1667 180.5,78.5C 179.527,80.2501 178.193,81.7501 176.5,83C 177.451,83.7175 177.617,84.5509 177,85.5C 176.333,84.1667 175.667,84.1667 175,85.5C 174.383,86.4491 174.549,87.2825 175.5,88C 174.473,88.5133 173.473,89.0133 172.5,89.5C 171.783,87.0634 170.783,84.7301 169.5,82.5C 168.522,82.9767 167.689,83.6433 167,84.5C 166.583,83.244 165.75,82.5774 164.5,82.5C 163.942,81.2101 162.942,80.3768 161.5,80C 162.861,78.4157 163.528,76.5824 163.5,74.5C 163.709,73.0783 164.209,71.745 165,70.5C 167.084,75.4519 168.75,75.7852 170,71.5C 171.15,72.4239 172.15,72.4239 173,71.5C 173.333,72.1667 173.667,72.8333 174,73.5C 174.914,69.8149 175.581,70.1482 176,74.5C 176.333,73.8333 176.667,73.1667 177,72.5C 177.667,76.5 178.333,76.5 179,72.5C 180.009,74.0249 180.509,75.6916 180.5,77.5 Z"/></g>
<g><path style="opacity:1" fill="#5b1891" d="M 24.5,75.5 C 24.0618,75.4346 23.7284,75.6012 23.5,76C 27.2205,77.7142 27.8872,80.0475 25.5,83C 26.5523,84.7165 25.8856,85.7165 23.5,86C 24.1667,86.3333 24.8333,86.6667 25.5,87C 24.1667,88 22.8333,89 21.5,90C 22.1667,90.3333 22.8333,90.6667 23.5,91C 22.1667,91.6667 22.1667,92.3333 23.5,93C 22.1667,93.3333 20.8333,93.6667 19.5,94C 19.8333,94.3333 20.1667,94.6667 20.5,95C 18.1358,96.0118 16.8024,97.3451 16.5,99C 17.5355,102.185 16.2021,104.851 12.5,107C 13.694,109.658 12.694,110.824 9.5,110.5C 9.16667,109.5 8.5,108.833 7.5,108.5C 5.40317,103.311 3.06984,98.3106 0.5,93.5C 0.767809,91.901 0.434475,90.5676 -0.5,89.5C -0.5,86.1667 -0.5,82.8333 -0.5,79.5C 1.41656,76.9855 3.24989,74.3188 5,71.5C 5.33333,72.1667 5.66667,72.8333 6,73.5C 7.68164,71.4011 9.34831,70.0678 11,69.5C 11.3173,71.3008 11.984,71.6341 13,70.5C 13.6667,73.1667 14.3333,73.1667 15,70.5C 16.5057,73.474 18.1724,73.8073 20,71.5C 20.6667,73.5 21.3333,75.5 22,77.5C 22.6667,75.5 23.3333,73.5 24,71.5C 24.49,72.7932 24.6567,74.1266 24.5,75.5 Z"/></g>
<g><path style="opacity:1" fill="#570e79" d="M 40.5,68.5 C 40.9967,70.5972 41.33,72.4305 41.5,74C 40.4841,75.6768 39.4841,77.3435 38.5,79C 40.0978,80.7261 39.7645,81.5594 37.5,81.5C 37.631,80.7611 37.4643,80.0944 37,79.5C 36.5,80.6667 35.6667,81.5 34.5,82C 35.8333,82.6667 36.8333,83.6667 37.5,85C 36.1667,89.6667 36.1667,94.3333 37.5,99C 35.0426,100.512 35.0426,101.846 37.5,103C 37.2795,104.799 36.9461,106.632 36.5,108.5C 36.9767,109.478 37.6433,110.311 38.5,111C 35.9557,112.563 35.9557,114.063 38.5,115.5C 36.4064,118.732 36.4064,122.065 38.5,125.5C 38.0467,128.889 37.38,132.223 36.5,135.5C 37.8155,136.807 38.8155,138.307 39.5,140C 39.0338,141.299 39.0338,142.799 39.5,144.5C 38.609,143.89 37.609,143.557 36.5,143.5C 33.5422,138.874 29.8755,134.874 25.5,131.5C 24.5,130.167 23.5,128.833 22.5,127.5C 24.3786,127.607 24.7119,127.107 23.5,126C 26.7465,123.897 27.0799,121.897 24.5,120C 25.1667,119.333 25.8333,118.667 26.5,118C 23.9133,116.475 23.0799,114.308 24,111.5C 24.3333,112.167 24.6667,112.833 25,113.5C 25.7845,111.714 26.9512,110.214 28.5,109C 27.6433,108.311 26.9767,107.478 26.5,106.5C 28.1753,102.526 28.5086,98.8594 27.5,95.5C 28.4493,93.4087 29.4493,91.242 30.5,89C 29.9379,85.3913 30.9379,82.0579 33.5,79C 33.3482,77.0757 33.3482,75.2424 33.5,73.5C 33.5793,72.0416 34.0793,70.7083 35,69.5C 35.7412,70.6405 36.5745,70.6405 37.5,69.5C 38.1924,70.0253 38.6924,70.6919 39,71.5C 39.2321,70.2625 39.7321,69.2625 40.5,68.5 Z"/></g>
<g><path style="opacity:1" fill="#430032" d="M 123.5,70.5 C 122.732,71.2625 122.232,72.2625 122,73.5C 121.667,72.1667 121.333,70.8333 121,69.5C 120.768,70.7375 120.268,71.7375 119.5,72.5C 119.607,70.6214 119.107,70.2881 118,71.5C 116.915,70.7069 115.748,70.0402 114.5,69.5C 112.622,69.6225 110.789,69.6225 109,69.5C 107.53,70.2666 106.03,70.9332 104.5,71.5C 96.8526,71.4615 89.3526,71.4615 82,71.5C 81.3333,70.8333 80.6667,70.1667 80,69.5C 77.1402,69.8876 74.1402,69.8876 71,69.5C 70.3333,70.1667 69.6667,70.8333 69,71.5C 67.7012,71.0338 66.2012,71.0338 64.5,71.5C 64.8633,73.9115 63.8633,75.4115 61.5,76C 61.8333,76.3333 62.1667,76.6667 62.5,77C 59.8333,77.6667 59.8333,78.3333 62.5,79C 59.8333,79.6667 59.8333,80.3333 62.5,81C 59.8333,81.6667 59.8333,82.3333 62.5,83C 60.0087,83.6259 60.0087,84.4593 62.5,85.5C 62.3062,87.0701 62.3062,88.5701 62.5,90C 65.1667,90.6667 65.1667,91.3333 62.5,92C 64.749,93.3516 66.4156,95.1849 67.5,97.5C 68.5114,99.3716 69.3448,101.372 70,103.5C 72.5181,105.952 75.0181,107.619 77.5,108.5C 77.4621,110.636 76.7954,111.969 75.5,112.5C 71.1751,110.331 67.6751,106.664 65,101.5C 64.6667,102.167 64.3333,102.833 64,103.5C 63.6019,100.768 62.1019,98.935 59.5,98C 63.5,97.3333 63.5,96.6667 59.5,96C 59.8333,95.6667 60.1667,95.3333 60.5,95C 57.8333,94.3333 57.8333,93.6667 60.5,93C 58.6992,92.6827 58.3659,92.016 59.5,91C 56.9659,88.4133 56.9659,85.7467 59.5,83C 57.5586,81.1841 56.8919,79.1841 57.5,77C 58.0611,75.324 59.0611,73.9906 60.5,73C 60.1667,72.6667 59.8333,72.3333 59.5,72C 62.4542,69.9474 65.2876,68.4474 68,67.5C 78.2855,67.7674 89.6188,68.1007 102,68.5C 105.506,67.2603 109.006,66.2603 112.5,65.5C 113.906,66.6682 115.072,66.3348 116,64.5C 118,67.1667 120,67.1667 122,64.5C 122.884,66.425 123.384,68.425 123.5,70.5 Z"/></g>
<g><path style="opacity:0.027" fill="#7c3d9a" d="M 180.5,78.5 C 181.833,79.1667 181.833,79.1667 180.5,78.5 Z"/></g>
<g><path style="opacity:1" fill="#32001d" d="M 109.5,77.5 C 110.591,79.8275 111.591,82.3275 112.5,85C 111.03,88.6303 109.197,92.4637 107,96.5C 106.667,95.5 106.333,94.5 106,93.5C 104.887,98.6197 102.053,101.453 97.5,102C 98.6537,102.914 98.487,103.747 97,104.5C 96.3333,103.167 95.6667,103.167 95,104.5C 94.6667,103.833 94.3333,103.167 94,102.5C 93.3333,103.833 92.3333,104.833 91,105.5C 90.3333,104.167 89.6667,104.167 89,105.5C 87.4702,104.364 86.1369,103.364 85,102.5C 84.6667,103.167 84.3333,103.833 84,104.5C 83.0812,102.761 81.9145,102.094 80.5,102.5C 80.9887,101.005 81.6554,99.6715 82.5,98.5C 82.3505,99.552 82.5172,100.552 83,101.5C 83.6667,97.5 84.3333,97.5 85,101.5C 86,100.167 87,98.8333 88,97.5C 88.3333,98.1667 88.6667,98.8333 89,99.5C 89.6054,97.5188 90.6054,97.1854 92,98.5C 97.5771,94.2892 102.077,89.1225 105.5,83C 104.638,80.2656 103.805,80.0989 103,82.5C 102.417,80.9984 101.584,79.6651 100.5,78.5C 99.914,78.7093 99.414,79.0426 99,79.5C 96.0064,76.7291 93.0064,76.0624 90,77.5C 88.583,76.9221 87.7496,75.9221 87.5,74.5C 91.0361,74.3454 94.5361,74.3454 98,74.5C 101.007,74.8946 103.841,76.228 106.5,78.5C 107.726,78.4805 108.726,78.1471 109.5,77.5 Z"/></g>
<g><path style="opacity:1" fill="#591183" d="M 28.5,70.5 C 29.3818,72.0843 30.2152,73.751 31,75.5C 31.0748,73.065 31.9081,72.3984 33.5,73.5C 33.3482,75.2424 33.3482,77.0757 33.5,79C 30.9379,82.0579 29.9379,85.3913 30.5,89C 29.4493,91.242 28.4493,93.4087 27.5,95.5C 28.5086,98.8594 28.1753,102.526 26.5,106.5C 26.9767,107.478 27.6433,108.311 28.5,109C 26.9512,110.214 25.7845,111.714 25,113.5C 24.6667,112.833 24.3333,112.167 24,111.5C 23.0799,114.308 23.9133,116.475 26.5,118C 25.8333,118.667 25.1667,119.333 24.5,120C 27.0799,121.897 26.7465,123.897 23.5,126C 24.7119,127.107 24.3786,127.607 22.5,127.5C 21.8333,126.167 20.8333,125.167 19.5,124.5C 17.823,122.46 16.1563,120.46 14.5,118.5C 13.9744,116.77 12.9744,115.436 11.5,114.5C 11.6716,113.508 11.3382,112.842 10.5,112.5C 10.1667,111.833 9.83333,111.167 9.5,110.5C 12.694,110.824 13.694,109.658 12.5,107C 16.2021,104.851 17.5355,102.185 16.5,99C 16.8024,97.3451 18.1358,96.0118 20.5,95C 20.1667,94.6667 19.8333,94.3333 19.5,94C 20.8333,93.6667 22.1667,93.3333 23.5,93C 22.1667,92.3333 22.1667,91.6667 23.5,91C 22.8333,90.6667 22.1667,90.3333 21.5,90C 22.8333,89 24.1667,88 25.5,87C 24.8333,86.6667 24.1667,86.3333 23.5,86C 25.8856,85.7165 26.5523,84.7165 25.5,83C 27.8872,80.0475 27.2205,77.7142 23.5,76C 23.7284,75.6012 24.0618,75.4346 24.5,75.5C 25.5324,73.6216 26.8657,71.9549 28.5,70.5 Z"/></g>
<g><path style="opacity:1" fill="#4a0450" d="M 131.5,88.5 C 131.329,87.1207 131.162,85.4541 131,83.5C 130.148,82.4293 129.315,81.4293 128.5,80.5C 128.5,79.8333 128.5,79.1667 128.5,78.5C 127.957,77.2579 127.623,75.9245 127.5,74.5C 127.497,71.3982 127.997,71.0649 129,73.5C 129.658,71.892 129.158,70.7253 127.5,70C 128.167,69.6667 128.833,69.3333 129.5,69C 129.255,66.9114 129.255,64.9114 129.5,63C 128.638,60.2656 127.805,60.0989 127,62.5C 126.683,60.6992 126.016,60.3659 125,61.5C 124.311,60.6433 123.478,59.9767 122.5,59.5C 117.786,61.5599 113.286,63.2266 109,64.5C 106.522,65.4467 104.188,65.4467 102,64.5C 100.667,65.1667 99.3333,65.8333 98,66.5C 92.5452,66.2796 86.8785,66.2796 81,66.5C 79.3333,65.8333 77.6667,65.1667 76,64.5C 73.8118,65.4467 71.4785,65.4467 69,64.5C 65.2398,64.939 61.7398,66.1056 58.5,68C 58.8333,68.3333 59.1667,68.6667 59.5,69C 58.7471,70.487 57.9138,70.6537 57,69.5C 54.204,73.0288 53.3707,76.5288 54.5,80C 53.8333,80.6667 53.1667,81.3333 52.5,82C 53.2402,88.1339 54.7402,94.3006 57,100.5C 60.1597,104.185 62.4931,107.851 64,111.5C 64.3333,110.833 64.6667,110.167 65,109.5C 65.3333,110.833 65.6667,112.167 66,113.5C 66.3333,112.833 66.6667,112.167 67,111.5C 69.1697,115.009 71.6697,117.509 74.5,119C 76.55,119.526 78.3834,120.359 80,121.5C 80.3333,121.167 80.6667,120.833 81,120.5C 81.2784,121.416 81.7784,122.082 82.5,122.5C 82.3398,124.199 82.5065,125.866 83,127.5C 84.4178,125.637 86.2511,125.137 88.5,126C 87.8333,126.667 87.1667,127.333 86.5,128C 88.1107,128.29 89.444,129.123 90.5,130.5C 89.7784,130.918 89.2784,131.584 89,132.5C 88.3333,131.167 87.6667,131.167 87,132.5C 86.3333,129.833 85.6667,129.833 85,132.5C 82.7881,131.35 80.6214,130.35 78.5,129.5C 76.6745,130.571 75.5079,129.904 75,127.5C 74.3741,129.991 73.5407,129.991 72.5,127.5C 70.6745,128.571 69.5079,127.904 69,125.5C 67.836,125.165 66.5026,125.165 65,125.5C 64.0853,124.672 63.4186,123.672 63,122.5C 62.6667,123.167 62.3333,123.833 62,124.5C 61.6667,123.167 61.3333,121.833 61,120.5C 57.1847,114.459 53.3513,108.959 49.5,104C 52.1591,102.134 51.8258,100.967 48.5,100.5C 48.4139,98.323 47.7472,96.323 46.5,94.5C 49.0443,92.3888 49.0443,90.2221 46.5,88C 48.5127,86.2087 48.5127,84.8753 46.5,84C 47.6778,80.5274 48.8445,76.6941 50,72.5C 54.5311,65.3792 60.3645,61.7125 67.5,61.5C 68.2216,61.0825 68.7216,60.4158 69,59.5C 70.3333,59.5 71.6667,59.5 73,59.5C 73.3333,60.1667 73.6667,60.8333 74,61.5C 75.3985,60.9491 76.7318,60.6158 78,60.5C 78.6667,63.1667 79.3333,63.1667 80,60.5C 80.2784,61.4158 80.7784,62.0825 81.5,62.5C 82.531,63.2485 83.6976,63.9152 85,64.5C 89.07,65.0687 93.7367,64.402 99,62.5C 99.3333,62.8333 99.6667,63.1667 100,63.5C 104.274,62.5644 108.607,60.8977 113,58.5C 113.333,58.8333 113.667,59.1667 114,59.5C 116.333,58.1667 118.667,56.8333 121,55.5C 122.016,56.6341 122.683,56.3008 123,54.5C 124.583,54.493 126.249,54.8263 128,55.5C 128.667,52.8333 129.333,52.8333 130,55.5C 131.333,55.5 132.667,55.5 134,55.5C 134.163,57.676 134.996,59.5093 136.5,61C 134.043,62.5123 134.043,63.8456 136.5,65C 133.833,65.6667 133.833,66.3333 136.5,67C 135.167,68.3333 135.167,69.6667 136.5,71C 135.833,72 135.167,73 134.5,74C 135.397,76.8825 135.397,79.8825 134.5,83C 133.669,84.8922 132.669,86.7256 131.5,88.5 Z"/></g>
<g><path style="opacity:1" fill="#320127" d="M 119.5,72.5 C 120.741,74.8776 120.074,76.7109 117.5,78C 119.878,78.9745 119.544,79.6411 116.5,80C 120.5,80.6667 120.5,81.3333 116.5,82C 119.544,82.3589 119.878,83.0255 117.5,84C 118.89,86.9938 117.89,88.9938 114.5,90C 116.891,90.6914 116.891,91.6914 114.5,93C 114.888,94.8082 114.888,96.4748 114.5,98C 112.19,99.6374 110.69,101.804 110,104.5C 109.086,100.815 108.419,101.148 108,105.5C 107.667,104.833 107.333,104.167 107,103.5C 106.139,106.368 104.472,108.702 102,110.5C 100.691,108.109 99.6914,108.109 99,110.5C 98.0255,108.122 97.3589,108.456 97,111.5C 96.6411,108.456 95.9745,108.122 95,110.5C 93.1267,109.911 91.46,110.578 90,112.5C 88.4301,111.386 87.0968,110.053 86,108.5C 85.3333,111.167 84.6667,111.167 84,108.5C 83.3333,111.167 82.6667,111.167 82,108.5C 81.3333,111.167 80.6667,111.167 80,108.5C 79.6667,109.5 79.3333,110.5 79,111.5C 78.7679,110.263 78.2679,109.263 77.5,108.5C 75.0181,107.619 72.5181,105.952 70,103.5C 69.3448,101.372 68.5114,99.3716 67.5,97.5C 67.4346,97.0618 67.6012,96.7284 68,96.5C 69,97.8333 70,99.1667 71,100.5C 71.3333,100.167 71.6667,99.8333 72,99.5C 73.582,100.96 74.9153,102.627 76,104.5C 76.6667,103.167 77.3333,103.167 78,104.5C 78.0748,102.065 78.9081,101.398 80.5,102.5C 81.9145,102.094 83.0812,102.761 84,104.5C 84.3333,103.833 84.6667,103.167 85,102.5C 86.1369,103.364 87.4702,104.364 89,105.5C 89.6667,104.167 90.3333,104.167 91,105.5C 92.3333,104.833 93.3333,103.833 94,102.5C 94.3333,103.167 94.6667,103.833 95,104.5C 95.6667,103.167 96.3333,103.167 97,104.5C 98.487,103.747 98.6537,102.914 97.5,102C 102.053,101.453 104.887,98.6197 106,93.5C 106.333,94.5 106.667,95.5 107,96.5C 109.197,92.4637 111.03,88.6303 112.5,85C 111.591,82.3275 110.591,79.8275 109.5,77.5C 111.873,76.6219 112.706,74.9552 112,72.5C 109.153,72.365 106.153,72.6984 103,73.5C 101.164,71.8689 101.664,71.2022 104.5,71.5C 106.03,70.9332 107.53,70.2666 109,69.5C 110.789,69.6225 112.622,69.6225 114.5,69.5C 115.748,70.0402 116.915,70.7069 118,71.5C 119.107,70.2881 119.607,70.6214 119.5,72.5 Z"/></g>
<g><path style="opacity:1" fill="#ad1280" d="M 164.5,82.5 C 165.75,82.5774 166.583,83.244 167,84.5C 167.689,83.6433 168.522,82.9767 169.5,82.5C 170.783,84.7301 171.783,87.0634 172.5,89.5C 172.5,89.8333 172.5,90.1667 172.5,90.5C 171.36,92.0455 170.36,93.7121 169.5,95.5C 168.326,96.5137 167.66,97.847 167.5,99.5C 167.167,99.5 166.833,99.5 166.5,99.5C 166.16,91.6436 164.16,90.977 160.5,97.5C 161.282,99.3293 160.616,100.829 158.5,102C 159.634,103.016 159.301,103.683 157.5,104C 158.557,105.878 158.557,107.545 157.5,109C 154.456,109.359 154.122,110.026 156.5,111C 155.687,112.314 154.687,113.481 153.5,114.5C 154.002,115.716 154.335,116.883 154.5,118C 151.236,120.057 150.57,122.39 152.5,125C 149.833,125.667 149.833,126.333 152.5,127C 151.833,127.333 151.167,127.667 150.5,128C 152.262,130.444 152.929,132.944 152.5,135.5C 152.747,136.713 153.414,137.38 154.5,137.5C 154.167,138.833 153.833,140.167 153.5,141.5C 152.503,141.53 151.836,141.03 151.5,140C 149.06,130.725 149.06,122.058 151.5,114C 151.838,105.352 154.504,97.3522 159.5,90C 159.167,89.6667 158.833,89.3333 158.5,89C 160.514,86.1497 162.514,83.983 164.5,82.5 Z"/></g>
<g><path style="opacity:1" fill="#320234" d="M 123.5,70.5 C 123.258,72.2696 123.591,74.2696 124.5,76.5C 123.409,79.3935 123.409,81.8935 124.5,84C 123.529,85.2036 122.529,85.7036 121.5,85.5C 124.298,87.5664 123.965,89.0664 120.5,90C 122.878,90.9745 122.544,91.6411 119.5,92C 123.5,92.6667 123.5,93.3333 119.5,94C 120.167,94.3333 120.833,94.6667 121.5,95C 119.408,95.9525 119.075,97.2859 120.5,99C 118.858,101.786 117.358,104.619 116,107.5C 115.667,106.833 115.333,106.167 115,105.5C 113.443,108.486 111.776,111.486 110,114.5C 109.026,112.122 108.359,112.456 108,115.5C 107.667,114.833 107.333,114.167 107,113.5C 106.16,116.464 105.16,116.797 104,114.5C 102.915,116.373 101.582,118.04 100,119.5C 98.9207,117.606 97.5874,117.273 96,118.5C 95.3333,115.833 94.6667,115.833 94,118.5C 93.3333,115.833 92.6667,115.833 92,118.5C 91.3992,116.641 90.5659,116.308 89.5,117.5C 88.5416,117.047 87.7083,116.381 87,115.5C 86.3333,118.167 85.6667,118.167 85,115.5C 84,115.833 83,116.167 82,116.5C 79.9735,114.103 77.8068,112.77 75.5,112.5C 76.7954,111.969 77.4621,110.636 77.5,108.5C 78.2679,109.263 78.7679,110.263 79,111.5C 79.3333,110.5 79.6667,109.5 80,108.5C 80.6667,111.167 81.3333,111.167 82,108.5C 82.6667,111.167 83.3333,111.167 84,108.5C 84.6667,111.167 85.3333,111.167 86,108.5C 87.0968,110.053 88.4301,111.386 90,112.5C 91.46,110.578 93.1267,109.911 95,110.5C 95.9745,108.122 96.6411,108.456 97,111.5C 97.3589,108.456 98.0255,108.122 99,110.5C 99.6914,108.109 100.691,108.109 102,110.5C 104.472,108.702 106.139,106.368 107,103.5C 107.333,104.167 107.667,104.833 108,105.5C 108.419,101.148 109.086,100.815 110,104.5C 110.69,101.804 112.19,99.6374 114.5,98C 114.888,96.4748 114.888,94.8082 114.5,93C 116.891,91.6914 116.891,90.6914 114.5,90C 117.89,88.9938 118.89,86.9938 117.5,84C 119.878,83.0255 119.544,82.3589 116.5,82C 120.5,81.3333 120.5,80.6667 116.5,80C 119.544,79.6411 119.878,78.9745 117.5,78C 120.074,76.7109 120.741,74.8776 119.5,72.5C 120.268,71.7375 120.768,70.7375 121,69.5C 121.333,70.8333 121.667,72.1667 122,73.5C 122.232,72.2625 122.732,71.2625 123.5,70.5 Z"/></g>
<g><path style="opacity:0.027" fill="#7c3d9a" d="M 172.5,90.5 C 173.833,91.1667 173.833,91.1667 172.5,90.5 Z"/></g>
<g><path style="opacity:0.027" fill="#7c3d9a" d="M -0.5,93.5 C -0.166667,93.5 0.166667,93.5 0.5,93.5C 0.31468,94.1701 -0.0186536,94.1701 -0.5,93.5 Z"/></g>
<g><path style="opacity:1" fill="#9a107b" d="M 162.5,74.5 C 162.833,74.5 163.167,74.5 163.5,74.5C 163.528,76.5824 162.861,78.4157 161.5,80C 162.942,80.3768 163.942,81.2101 164.5,82.5C 162.514,83.983 160.514,86.1497 158.5,89C 158.833,89.3333 159.167,89.6667 159.5,90C 154.504,97.3522 151.838,105.352 151.5,114C 149.06,122.058 149.06,130.725 151.5,140C 151.836,141.03 152.503,141.53 153.5,141.5C 152.833,143.167 152.167,144.833 151.5,146.5C 150.325,146.719 149.325,146.386 148.5,145.5C 148.723,144.033 149.056,142.533 149.5,141C 148.833,139.667 147.833,138.667 146.5,138C 149.167,137.333 149.167,136.667 146.5,136C 147.167,135.667 147.833,135.333 148.5,135C 147.572,134.612 146.905,133.945 146.5,133C 147.227,130.229 147.56,127.562 147.5,125C 144.833,124.333 144.833,123.667 147.5,123C 147.604,120.211 147.271,117.211 146.5,114C 146.755,112.674 147.422,111.674 148.5,111C 145.833,110.333 145.833,109.667 148.5,109C 149.276,99.7775 151.943,90.6108 156.5,81.5C 158.562,79.5899 160.062,77.2565 161,74.5C 161.779,77.0972 162.279,77.0972 162.5,74.5 Z"/></g>
<g><path style="opacity:1" fill="#670b6b" d="M 149.5,56.5 C 150.371,59.1123 151.037,61.779 151.5,64.5C 150.691,65.4687 149.691,66.3021 148.5,67C 150.007,67.8373 150.507,69.0039 150,70.5C 148.513,72.9852 146.679,75.1518 144.5,77C 143.32,83.4341 143.32,90.1008 144.5,97C 143.12,98.3236 142.786,99.6569 143.5,101C 142.833,101.333 142.167,101.667 141.5,102C 141.987,114.236 142.32,127.903 142.5,143C 139.833,143.667 139.833,144.333 142.5,145C 141.833,145.333 141.167,145.667 140.5,146C 140.833,147 141.167,148 141.5,149C 140.891,151.058 139.891,151.891 138.5,151.5C 140.991,152.541 140.991,153.374 138.5,154C 141.167,154.667 141.167,155.333 138.5,156C 139.26,157.441 139.926,158.941 140.5,160.5C 140.957,161.298 141.624,161.631 142.5,161.5C 142.5,161.833 142.5,162.167 142.5,162.5C 139.833,164.5 137.167,166.5 134.5,168.5C 132.973,168.427 131.973,169.094 131.5,170.5C 130.761,170.369 130.094,170.536 129.5,171C 130.696,171.654 130.696,172.154 129.5,172.5C 128.583,171.873 127.583,171.539 126.5,171.5C 124.5,171.5 122.5,171.5 120.5,171.5C 120.297,169.61 120.963,168.11 122.5,167C 121.748,166.329 121.414,165.496 121.5,164.5C 122.222,164.082 122.722,163.416 123,162.5C 123.333,163.167 123.667,163.833 124,164.5C 124.684,163.216 124.517,162.049 123.5,161C 124.711,159.156 126.044,158.322 127.5,158.5C 125.985,157.409 125.152,156.076 125,154.5C 126.016,155.634 126.683,155.301 127,153.5C 127.333,154.167 127.667,154.833 128,155.5C 128.724,153.041 130.057,152.041 132,152.5C 134.248,149.709 136.415,146.876 138.5,144C 139.341,139.42 140.341,134.587 141.5,129.5C 141.137,128.817 140.804,128.15 140.5,127.5C 140.257,121.615 138.924,115.781 136.5,110C 136.5,106 136.5,102 136.5,98C 137.167,97 137.833,96 138.5,95C 138.673,92.7402 138.673,90.4069 138.5,88C 139.952,86.0417 140.285,84.0417 139.5,82C 141.513,80.2087 141.513,78.8753 139.5,78C 141.904,77.4921 142.571,76.3255 141.5,74.5C 142.325,73.6143 143.325,73.281 144.5,73.5C 144.055,70.6354 144.722,68.1354 146.5,66C 143.939,63.1767 143.939,60.3433 146.5,57.5C 147.222,57.0825 147.722,56.4158 148,55.5C 148.383,56.056 148.883,56.3893 149.5,56.5 Z"/></g>
<g><path style="opacity:0.027" fill="#7c3d9a" d="M 169.5,95.5 C 170.833,96.1667 170.833,96.1667 169.5,95.5 Z"/></g>
<g><path style="opacity:0.027" fill="#7c3d9a" d="M 0.5,96.5 C 1.83333,97.1667 1.83333,97.1667 0.5,96.5 Z"/></g>
<g><path style="opacity:1" fill="#850d73" d="M 156.5,81.5 C 151.943,90.6108 149.276,99.7775 148.5,109C 145.833,109.667 145.833,110.333 148.5,111C 147.422,111.674 146.755,112.674 146.5,114C 147.271,117.211 147.604,120.211 147.5,123C 144.833,123.667 144.833,124.333 147.5,125C 147.56,127.562 147.227,130.229 146.5,133C 146.905,133.945 147.572,134.612 148.5,135C 147.833,135.333 147.167,135.667 146.5,136C 149.167,136.667 149.167,137.333 146.5,138C 147.833,138.667 148.833,139.667 149.5,141C 149.056,142.533 148.723,144.033 148.5,145.5C 149.325,146.386 150.325,146.719 151.5,146.5C 150.766,147.708 150.433,149.041 150.5,150.5C 149.326,151.514 148.66,152.847 148.5,154.5C 147.833,154.833 147.167,155.167 146.5,155.5C 145.711,155.217 145.044,154.717 144.5,154C 145.257,150.572 145.59,147.238 145.5,144C 144.833,143 144.167,142 143.5,141C 143.742,128.879 143.742,117.879 143.5,108C 144.167,106 144.833,104 145.5,102C 144.542,100.853 144.875,99.8525 146.5,99C 145.273,97.4126 145.606,96.0793 147.5,95C 146.786,93.6569 147.12,92.3236 148.5,91C 147.939,89.4345 148.606,88.1011 150.5,87C 149.483,85.9505 149.316,84.7839 150,83.5C 150.333,84.1667 150.667,84.8333 151,85.5C 151.862,83.913 152.529,82.2464 153,80.5C 153.333,81.1667 153.667,81.8333 154,82.5C 154.919,79.5984 155.752,79.2651 156.5,81.5 Z"/></g>
<g><path style="opacity:1" fill="#410658" d="M 131.5,95.5 C 130.446,99.9695 130.446,104.803 131.5,110C 132.167,110.333 132.833,110.667 133.5,111C 133.167,112 132.833,113 132.5,114C 135.167,114.667 135.167,115.333 132.5,116C 133.167,116.333 133.833,116.667 134.5,117C 134.694,118.43 134.694,119.93 134.5,121.5C 135.441,121.489 136.108,121.989 136.5,123C 135.578,126.796 135.578,130.463 136.5,134C 135.672,134.915 134.672,135.581 133.5,136C 134.167,136.333 134.833,136.667 135.5,137C 133.667,137.5 132.5,138.667 132,140.5C 131.667,139.833 131.333,139.167 131,138.5C 130.581,139.672 129.915,140.672 129,141.5C 128.333,140.167 127.667,140.167 127,141.5C 126.667,140.833 126.333,140.167 126,139.5C 125.583,140.756 124.75,141.423 123.5,141.5C 121.518,141.111 119.351,140.111 117,138.5C 116.722,139.416 116.222,140.082 115.5,140.5C 115.001,137.611 113.501,136.944 111,138.5C 109.09,137.794 107.09,136.794 105,135.5C 104.667,135.833 104.333,136.167 104,136.5C 103.722,135.584 103.222,134.918 102.5,134.5C 102.351,133.448 102.517,132.448 103,131.5C 104.016,132.634 104.683,132.301 105,130.5C 105.869,133.763 107.203,134.096 109,131.5C 109.667,134.167 110.333,134.167 111,131.5C 112.333,134.167 113.667,134.167 115,131.5C 115.667,132.167 116.333,132.833 117,133.5C 118.204,132.529 118.704,131.529 118.5,130.5C 119.251,131.376 119.751,132.376 120,133.5C 120.419,129.148 121.086,128.815 122,132.5C 122.667,131.167 123.333,131.167 124,132.5C 125.333,131.833 126.333,130.833 127,129.5C 127.333,130.167 127.667,130.833 128,131.5C 128.684,130.216 128.517,129.049 127.5,128C 131.5,127.333 131.5,126.667 127.5,126C 131.705,125.504 132.371,123.837 129.5,121C 129.833,119.333 130.167,117.667 130.5,116C 129.833,115.333 129.167,114.667 128.5,114C 129.833,110 129.833,106 128.5,102C 129.132,99.5848 130.132,97.4181 131.5,95.5 Z"/></g>
<g><path style="opacity:1" fill="#750e71" d="M 160.5,65.5 C 160.918,66.2216 161.584,66.7216 162.5,67C 159.833,67.6667 159.833,68.3333 162.5,69C 160.109,69.6914 160.109,70.6914 162.5,72C 161.402,72.7697 161.402,73.603 162.5,74.5C 162.279,77.0972 161.779,77.0972 161,74.5C 160.062,77.2565 158.562,79.5899 156.5,81.5C 155.752,79.2651 154.919,79.5984 154,82.5C 153.667,81.8333 153.333,81.1667 153,80.5C 152.529,82.2464 151.862,83.913 151,85.5C 150.667,84.8333 150.333,84.1667 150,83.5C 149.316,84.7839 149.483,85.9505 150.5,87C 148.606,88.1011 147.939,89.4345 148.5,91C 147.12,92.3236 146.786,93.6569 147.5,95C 145.606,96.0793 145.273,97.4126 146.5,99C 144.875,99.8525 144.542,100.853 145.5,102C 144.833,104 144.167,106 143.5,108C 143.742,117.879 143.742,128.879 143.5,141C 144.167,142 144.833,143 145.5,144C 145.59,147.238 145.257,150.572 144.5,154C 145.044,154.717 145.711,155.217 146.5,155.5C 146.5,156.167 146.5,156.833 146.5,157.5C 145.833,157.5 145.5,157.833 145.5,158.5C 144.272,159.306 143.272,160.306 142.5,161.5C 141.624,161.631 140.957,161.298 140.5,160.5C 139.926,158.941 139.26,157.441 138.5,156C 141.167,155.333 141.167,154.667 138.5,154C 140.991,153.374 140.991,152.541 138.5,151.5C 139.891,151.891 140.891,151.058 141.5,149C 141.167,148 140.833,147 140.5,146C 141.167,145.667 141.833,145.333 142.5,145C 139.833,144.333 139.833,143.667 142.5,143C 142.32,127.903 141.987,114.236 141.5,102C 142.167,101.667 142.833,101.333 143.5,101C 142.786,99.6569 143.12,98.3236 144.5,97C 143.32,90.1008 143.32,83.4341 144.5,77C 146.679,75.1518 148.513,72.9852 150,70.5C 150.507,69.0039 150.007,67.8373 148.5,67C 149.691,66.3021 150.691,65.4687 151.5,64.5C 151.435,64.9382 151.601,65.2716 152,65.5C 152.333,64.8333 152.667,64.1667 153,63.5C 153.84,66.4637 154.84,66.797 156,64.5C 157.32,66.5828 158.654,66.2494 160,63.5C 160.464,64.0944 160.631,64.7611 160.5,65.5 Z"/></g>
<g><path style="opacity:0.027" fill="#7c3d9a" d="M 1.5,99.5 C 2.83333,100.167 2.83333,100.167 1.5,99.5 Z"/></g>
<g><path style="opacity:1" fill="#320341" d="M 124.5,76.5 C 126.508,77.3007 127.008,78.634 126,80.5C 126.708,79.6195 127.542,78.9528 128.5,78.5C 128.5,79.1667 128.5,79.8333 128.5,80.5C 128.264,82.0491 128.264,83.5491 128.5,85C 127.142,86.8316 126.808,88.6649 127.5,90.5C 125.009,91.5407 125.009,92.3741 127.5,93C 126.833,93.3333 126.167,93.6667 125.5,94C 126.051,95.3985 126.384,96.7318 126.5,98C 125.672,98.9147 124.672,99.5814 123.5,100C 127.361,100.569 127.361,101.402 123.5,102.5C 124.734,104.398 124.401,106.065 122.5,107.5C 123.443,109.47 122.776,110.97 120.5,112C 122.891,112.691 122.891,113.691 120.5,115C 120.5,116.333 120.5,117.667 120.5,119C 119.747,120.487 118.914,120.654 118,119.5C 117.683,121.301 117.016,121.634 116,120.5C 115.333,123.167 114.667,123.167 114,120.5C 113.333,121.833 112.667,123.167 112,124.5C 111.667,123.833 111.333,123.167 111,122.5C 109.032,126.223 107.365,126.223 106,122.5C 105.333,123.833 104.667,125.167 104,126.5C 102.667,126.5 101.333,126.5 100,126.5C 98.6667,123.833 97.3333,123.833 96,126.5C 94.3333,125.5 92.6667,124.5 91,123.5C 90.3965,127.333 89.5632,127.333 88.5,123.5C 89.3629,122.06 89.3629,120.726 88.5,119.5C 89.0253,118.808 89.6919,118.308 90.5,118C 90.2716,117.601 89.9382,117.435 89.5,117.5C 90.5659,116.308 91.3992,116.641 92,118.5C 92.6667,115.833 93.3333,115.833 94,118.5C 94.6667,115.833 95.3333,115.833 96,118.5C 97.5874,117.273 98.9207,117.606 100,119.5C 101.582,118.04 102.915,116.373 104,114.5C 105.16,116.797 106.16,116.464 107,113.5C 107.333,114.167 107.667,114.833 108,115.5C 108.359,112.456 109.026,112.122 110,114.5C 111.776,111.486 113.443,108.486 115,105.5C 115.333,106.167 115.667,106.833 116,107.5C 117.358,104.619 118.858,101.786 120.5,99C 119.075,97.2859 119.408,95.9525 121.5,95C 120.833,94.6667 120.167,94.3333 119.5,94C 123.5,93.3333 123.5,92.6667 119.5,92C 122.544,91.6411 122.878,90.9745 120.5,90C 123.965,89.0664 124.298,87.5664 121.5,85.5C 122.529,85.7036 123.529,85.2036 124.5,84C 123.409,81.8935 123.409,79.3935 124.5,76.5 Z"/></g>
<g><path style="opacity:0.027" fill="#7c3d9a" d="M 167.5,99.5 C 168.833,100.167 168.833,100.167 167.5,99.5 Z"/></g>
<g><path style="opacity:0.027" fill="#7c3d9a" d="M 2.5,101.5 C 3.83333,102.167 3.83333,102.167 2.5,101.5 Z"/></g>
<g><path style="opacity:0.027" fill="#7c3d9a" d="M 166.5,101.5 C 167.833,102.167 167.833,102.167 166.5,101.5 Z"/></g>
<g><path style="opacity:0.027" fill="#7c3d9a" d="M 3.5,103.5 C 4.83333,104.167 4.83333,104.167 3.5,103.5 Z"/></g>
<g><path style="opacity:0.027" fill="#7c3d9a" d="M 165.5,104.5 C 166.833,105.167 166.833,105.167 165.5,104.5 Z"/></g>
<g><path style="opacity:0.027" fill="#7c3d9a" d="M 4.5,105.5 C 5.83333,106.167 5.83333,106.167 4.5,105.5 Z"/></g>
<g><path style="opacity:1" fill="#38044e" d="M 128.5,80.5 C 129.315,81.4293 130.148,82.4293 131,83.5C 131.162,85.4541 131.329,87.1207 131.5,88.5C 131.5,90.8333 131.5,93.1667 131.5,95.5C 130.132,97.4181 129.132,99.5848 128.5,102C 129.833,106 129.833,110 128.5,114C 129.167,114.667 129.833,115.333 130.5,116C 130.167,117.667 129.833,119.333 129.5,121C 132.371,123.837 131.705,125.504 127.5,126C 131.5,126.667 131.5,127.333 127.5,128C 128.517,129.049 128.684,130.216 128,131.5C 127.667,130.833 127.333,130.167 127,129.5C 126.333,130.833 125.333,131.833 124,132.5C 123.333,131.167 122.667,131.167 122,132.5C 121.086,128.815 120.419,129.148 120,133.5C 119.751,132.376 119.251,131.376 118.5,130.5C 118.704,131.529 118.204,132.529 117,133.5C 116.333,132.833 115.667,132.167 115,131.5C 113.667,134.167 112.333,134.167 111,131.5C 110.333,134.167 109.667,134.167 109,131.5C 107.203,134.096 105.869,133.763 105,130.5C 104.683,132.301 104.016,132.634 103,131.5C 102.517,132.448 102.351,133.448 102.5,134.5C 101.504,134.414 100.671,134.748 100,135.5C 97.9031,134.009 95.5697,133.009 93,132.5C 91.3745,133.412 90.5412,132.745 90.5,130.5C 89.444,129.123 88.1107,128.29 86.5,128C 87.1667,127.333 87.8333,126.667 88.5,126C 86.2511,125.137 84.4178,125.637 83,127.5C 82.5065,125.866 82.3398,124.199 82.5,122.5C 82.369,121.761 82.5357,121.094 83,120.5C 83.3173,122.301 83.984,122.634 85,121.5C 85.6667,124.167 86.3333,124.167 87,121.5C 87.2784,122.416 87.7784,123.082 88.5,123.5C 89.5632,127.333 90.3965,127.333 91,123.5C 92.6667,124.5 94.3333,125.5 96,126.5C 97.3333,123.833 98.6667,123.833 100,126.5C 101.333,126.5 102.667,126.5 104,126.5C 104.667,125.167 105.333,123.833 106,122.5C 107.365,126.223 109.032,126.223 111,122.5C 111.333,123.167 111.667,123.833 112,124.5C 112.667,123.167 113.333,121.833 114,120.5C 114.667,123.167 115.333,123.167 116,120.5C 117.016,121.634 117.683,121.301 118,119.5C 118.914,120.654 119.747,120.487 120.5,119C 120.5,117.667 120.5,116.333 120.5,115C 122.891,113.691 122.891,112.691 120.5,112C 122.776,110.97 123.443,109.47 122.5,107.5C 124.401,106.065 124.734,104.398 123.5,102.5C 127.361,101.402 127.361,100.569 123.5,100C 124.672,99.5814 125.672,98.9147 126.5,98C 126.384,96.7318 126.051,95.3985 125.5,94C 126.167,93.6667 126.833,93.3333 127.5,93C 125.009,92.3741 125.009,91.5407 127.5,90.5C 126.808,88.6649 127.142,86.8316 128.5,85C 128.264,83.5491 128.264,82.0491 128.5,80.5 Z"/></g>
<g><path style="opacity:0.027" fill="#7c3d9a" d="M 164.5,106.5 C 165.833,107.167 165.833,107.167 164.5,106.5 Z"/></g>
<g><path style="opacity:0.027" fill="#7c3d9a" d="M 7.5,108.5 C 6.83333,109.167 6.83333,109.167 7.5,108.5 Z"/></g>
<g><path style="opacity:1" fill="#4c065a" d="M 48.5,100.5 C 51.8258,100.967 52.1591,102.134 49.5,104C 53.3513,108.959 57.1847,114.459 61,120.5C 61.3333,121.833 61.6667,123.167 62,124.5C 62.3333,123.833 62.6667,123.167 63,122.5C 63.4186,123.672 64.0853,124.672 65,125.5C 66.5026,125.165 67.836,125.165 69,125.5C 69.5079,127.904 70.6745,128.571 72.5,127.5C 73.5407,129.991 74.3741,129.991 75,127.5C 75.5079,129.904 76.6745,130.571 78.5,129.5C 80.6214,130.35 82.7881,131.35 85,132.5C 85.6667,129.833 86.3333,129.833 87,132.5C 87.6667,131.167 88.3333,131.167 89,132.5C 89.2784,131.584 89.7784,130.918 90.5,130.5C 90.5412,132.745 91.3745,133.412 93,132.5C 95.5697,133.009 97.9031,134.009 100,135.5C 100.671,134.748 101.504,134.414 102.5,134.5C 103.222,134.918 103.722,135.584 104,136.5C 104.333,136.167 104.667,135.833 105,135.5C 107.09,136.794 109.09,137.794 111,138.5C 113.501,136.944 115.001,137.611 115.5,140.5C 115.279,143.097 114.779,143.097 114,140.5C 112.57,140.694 111.07,140.694 109.5,140.5C 108.522,140.977 107.689,141.643 107,142.5C 105.333,141.5 103.667,140.5 102,139.5C 100.333,139.833 98.6667,140.167 97,140.5C 93.9024,138.124 90.9024,137.457 88,138.5C 85.2791,135.994 82.6124,135.327 80,136.5C 77.9336,134.36 75.6002,133.693 73,134.5C 70.8995,133.076 68.7328,131.742 66.5,130.5C 64.6745,131.571 63.5079,130.904 63,128.5C 62.6667,128.833 62.3333,129.167 62,129.5C 60.992,127.741 59.492,126.574 57.5,126C 57.5,125 57.5,124 57.5,123C 56.5838,122.626 55.7504,122.126 55,121.5C 54.4837,118.966 53.317,116.8 51.5,115C 51.8333,114.667 52.1667,114.333 52.5,114C 51.5621,110.444 49.8954,107.444 47.5,105C 47.9121,103.436 48.2454,101.936 48.5,100.5 Z"/></g>
<g><path style="opacity:1" fill="#500760" d="M 146.5,57.5 C 143.939,60.3433 143.939,63.1767 146.5,66C 144.722,68.1354 144.055,70.6354 144.5,73.5C 143.325,73.281 142.325,73.6143 141.5,74.5C 142.571,76.3255 141.904,77.4921 139.5,78C 141.513,78.8753 141.513,80.2087 139.5,82C 140.285,84.0417 139.952,86.0417 138.5,88C 138.673,90.4069 138.673,92.7402 138.5,95C 137.833,96 137.167,97 136.5,98C 136.5,102 136.5,106 136.5,110C 138.924,115.781 140.257,121.615 140.5,127.5C 140.083,131.855 138.75,136.022 136.5,140C 136.833,140.333 137.167,140.667 137.5,141C 135.623,142.717 133.623,144.217 131.5,145.5C 130.538,143.014 129.705,143.014 129,145.5C 127.215,144.878 125.381,144.544 123.5,144.5C 124.833,143.5 124.833,142.5 123.5,141.5C 124.75,141.423 125.583,140.756 126,139.5C 126.333,140.167 126.667,140.833 127,141.5C 127.667,140.167 128.333,140.167 129,141.5C 129.915,140.672 130.581,139.672 131,138.5C 131.333,139.167 131.667,139.833 132,140.5C 132.5,138.667 133.667,137.5 135.5,137C 134.833,136.667 134.167,136.333 133.5,136C 134.672,135.581 135.672,134.915 136.5,134C 135.578,130.463 135.578,126.796 136.5,123C 136.108,121.989 135.441,121.489 134.5,121.5C 134.694,119.93 134.694,118.43 134.5,117C 133.833,116.667 133.167,116.333 132.5,116C 135.167,115.333 135.167,114.667 132.5,114C 132.833,113 133.167,112 133.5,111C 132.833,110.667 132.167,110.333 131.5,110C 130.446,104.803 130.446,99.9695 131.5,95.5C 131.5,93.1667 131.5,90.8333 131.5,88.5C 132.669,86.7256 133.669,84.8922 134.5,83C 135.397,79.8825 135.397,76.8825 134.5,74C 135.167,73 135.833,72 136.5,71C 135.167,69.6667 135.167,68.3333 136.5,67C 133.833,66.3333 133.833,65.6667 136.5,65C 134.043,63.8456 134.043,62.5123 136.5,61C 134.996,59.5093 134.163,57.676 134,55.5C 132.667,55.5 131.333,55.5 130,55.5C 129.333,52.8333 128.667,52.8333 128,55.5C 126.249,54.8263 124.583,54.493 123,54.5C 122.683,56.3008 122.016,56.6341 121,55.5C 118.667,56.8333 116.333,58.1667 114,59.5C 113.667,59.1667 113.333,58.8333 113,58.5C 108.607,60.8977 104.274,62.5644 100,63.5C 99.6667,63.1667 99.3333,62.8333 99,62.5C 93.7367,64.402 89.07,65.0687 85,64.5C 83.6976,63.9152 82.531,63.2485 81.5,62.5C 83.022,62.2102 84.522,62.2102 86,62.5C 86.6667,61.8333 87.3333,61.1667 88,60.5C 89.1011,62.3939 90.4345,63.0606 92,62.5C 93,61.8333 94,61.1667 95,60.5C 97.6667,61.8333 100.333,61.8333 103,60.5C 107.791,57.771 112.457,55.4377 117,53.5C 117.333,54.1667 117.667,54.8333 118,55.5C 118.419,54.3279 119.085,53.3279 120,52.5C 121.333,52.5 122.667,52.5 124,52.5C 124.333,51.8333 124.667,51.1667 125,50.5C 125.667,53.1667 126.333,53.1667 127,50.5C 127.667,53.1667 128.333,53.1667 129,50.5C 130.333,50.5 131.667,50.5 133,50.5C 134.402,52.9734 135.902,52.9734 137.5,50.5C 139.864,53.0887 142.364,55.422 145,57.5C 145.779,54.9028 146.279,54.9028 146.5,57.5 Z"/></g>
<g><path style="opacity:0.027" fill="#7c3d9a" d="M 163.5,109.5 C 164.833,110.167 164.833,110.167 163.5,109.5 Z"/></g>
<g><path style="opacity:0.027" fill="#7c3d9a" d="M 7.5,110.5 C 8.83333,111.167 8.83333,111.167 7.5,110.5 Z"/></g>
<g><path style="opacity:0.996" fill="#bf1b86" d="M 166.5,99.5 C 166.5,100.167 166.5,100.833 166.5,101.5C 165.069,102.78 164.402,104.447 164.5,106.5C 162.903,108.848 161.903,111.514 161.5,114.5C 158.721,121.928 156.388,129.595 154.5,137.5C 153.414,137.38 152.747,136.713 152.5,135.5C 152.929,132.944 152.262,130.444 150.5,128C 151.167,127.667 151.833,127.333 152.5,127C 149.833,126.333 149.833,125.667 152.5,125C 150.57,122.39 151.236,120.057 154.5,118C 154.335,116.883 154.002,115.716 153.5,114.5C 154.687,113.481 155.687,112.314 156.5,111C 154.122,110.026 154.456,109.359 157.5,109C 158.557,107.545 158.557,105.878 157.5,104C 159.301,103.683 159.634,103.016 158.5,102C 160.616,100.829 161.282,99.3293 160.5,97.5C 164.16,90.977 166.16,91.6436 166.5,99.5 Z"/></g>
<g><path style="opacity:0.027" fill="#7c3d9a" d="M 10.5,112.5 C 9.83333,113.167 9.83333,113.167 10.5,112.5 Z"/></g>
<g><path style="opacity:0.027" fill="#7c3d9a" d="M 11.5,114.5 C 10.8333,115.167 10.8333,115.167 11.5,114.5 Z"/></g>
<g><path style="opacity:0.027" fill="#7c3d9a" d="M 161.5,114.5 C 162.833,115.167 162.833,115.167 161.5,114.5 Z"/></g>
<g><path style="opacity:0.027" fill="#7c3d9a" d="M 11.5,116.5 C 12.8333,117.167 12.8333,117.167 11.5,116.5 Z"/></g>
<g><path style="opacity:0.027" fill="#7c3d9a" d="M 161.5,116.5 C 162.833,117.167 162.833,117.167 161.5,116.5 Z"/></g>
<g><path style="opacity:0.027" fill="#7c3d9a" d="M 14.5,118.5 C 13.8333,119.167 13.8333,119.167 14.5,118.5 Z"/></g>
<g><path style="opacity:0.027" fill="#7c3d9a" d="M 160.5,118.5 C 161.833,119.167 161.833,119.167 160.5,118.5 Z"/></g>
<g><path style="opacity:0.027" fill="#7c3d9a" d="M 159.5,122.5 C 160.833,123.167 160.833,123.167 159.5,122.5 Z"/></g>
<g><path style="opacity:0.027" fill="#7c3d9a" d="M 19.5,124.5 C 18.8333,125.167 18.8333,125.167 19.5,124.5 Z"/></g>
<g><path style="opacity:0.027" fill="#7c3d9a" d="M 158.5,126.5 C 159.833,127.167 159.833,127.167 158.5,126.5 Z"/></g>
<g><path style="opacity:0.027" fill="#7c3d9a" d="M 20.5,127.5 C 21.8333,128.167 21.8333,128.167 20.5,127.5 Z"/></g>
<g><path style="opacity:0.027" fill="#7c3d9a" d="M 157.5,130.5 C 158.833,131.167 158.833,131.167 157.5,130.5 Z"/></g>
<g><path style="opacity:0.027" fill="#7c3d9a" d="M 25.5,131.5 C 24.8333,132.167 24.8333,132.167 25.5,131.5 Z"/></g>
<g><path style="opacity:1" fill="#590a70" d="M 37.5,81.5 C 38.2899,82.7942 39.2899,83.9609 40.5,85C 39.8333,85.6667 39.1667,86.3333 38.5,87C 39.7919,91.3757 39.7919,95.709 38.5,100C 39.1667,100.667 39.8333,101.333 40.5,102C 40.0155,108.052 41.3488,114.219 44.5,120.5C 44.2907,121.086 43.9574,121.586 43.5,122C 45.1337,124.98 46.8004,127.98 48.5,131C 47.8333,131.333 47.1667,131.667 46.5,132C 48.0806,132.707 49.5806,133.54 51,134.5C 51.6346,138.102 52.968,138.768 55,136.5C 56.3333,137.833 57.6667,139.167 59,140.5C 60.3333,140.5 61.6667,140.5 63,140.5C 64.5699,141.614 65.9032,142.947 67,144.5C 67.6667,141.833 68.3333,141.833 69,144.5C 70.3204,142.417 71.6538,142.751 73,145.5C 73.3333,144.833 73.6667,144.167 74,143.5C 75.3333,144.167 76.6667,144.833 78,145.5C 79.016,144.366 79.6827,144.699 80,146.5C 82,146.5 84,146.5 86,146.5C 87,147.167 88,147.833 89,148.5C 90.5874,147.273 91.9207,147.606 93,149.5C 94.3985,148.949 95.7318,148.616 97,148.5C 97.4643,149.094 97.631,149.761 97.5,150.5C 98.3029,151.423 98.4696,152.423 98,153.5C 95.2727,150.705 92.7727,151.205 90.5,155C 91.056,155.383 91.3893,155.883 91.5,156.5C 89.2475,156.084 87.7475,154.751 87,152.5C 86.3333,155.167 85.6667,155.167 85,152.5C 84.3333,155.167 83.6667,155.167 83,152.5C 81.6667,152.5 80.3333,152.5 79,152.5C 78.0853,151.672 77.4186,150.672 77,149.5C 76.147,151.935 75.147,154.269 74,156.5C 73.3828,155.551 73.5494,154.718 74.5,154C 73.2559,153.544 72.4226,154.044 72,155.5C 71.6667,154.833 71.3333,154.167 71,153.5C 70,154.5 69,155.5 68,156.5C 67.3333,155.833 66.6667,155.167 66,154.5C 63.8774,155.883 62.8774,157.55 63,159.5C 61.4877,157.043 60.1544,157.043 59,159.5C 58.0853,158.672 57.4186,157.672 57,156.5C 55.9887,157.337 54.8221,157.67 53.5,157.5C 51.4268,155.42 49.0934,153.754 46.5,152.5C 45.4579,150.209 43.9579,149.209 42,149.5C 41.6339,147.548 40.8005,145.882 39.5,144.5C 39.0338,142.799 39.0338,141.299 39.5,140C 38.8155,138.307 37.8155,136.807 36.5,135.5C 37.38,132.223 38.0467,128.889 38.5,125.5C 36.4064,122.065 36.4064,118.732 38.5,115.5C 35.9557,114.063 35.9557,112.563 38.5,111C 37.6433,110.311 36.9767,109.478 36.5,108.5C 36.9461,106.632 37.2795,104.799 37.5,103C 35.0426,101.846 35.0426,100.512 37.5,99C 36.1667,94.3333 36.1667,89.6667 37.5,85C 36.8333,83.6667 35.8333,82.6667 34.5,82C 35.6667,81.5 36.5,80.6667 37,79.5C 37.4643,80.0944 37.631,80.7611 37.5,81.5 Z"/></g>
<g><path style="opacity:0.027" fill="#7c3d9a" d="M 156.5,133.5 C 157.833,134.167 157.833,134.167 156.5,133.5 Z"/></g>
<g><path style="opacity:0.027" fill="#7c3d9a" d="M 155.5,137.5 C 156.833,138.167 156.833,138.167 155.5,137.5 Z"/></g>
<g><path style="opacity:0.027" fill="#7c3d9a" d="M 30.5,138.5 C 31.8333,139.167 31.8333,139.167 30.5,138.5 Z"/></g>
<g><path style="opacity:0.027" fill="#7c3d9a" d="M 32.5,140.5 C 33.8333,141.167 33.8333,141.167 32.5,140.5 Z"/></g>
<g><path style="opacity:0.027" fill="#7c3d9a" d="M 154.5,140.5 C 155.833,141.167 155.833,141.167 154.5,140.5 Z"/></g>
<g><path style="opacity:0.027" fill="#7c3d9a" d="M 36.5,143.5 C 35.8333,144.167 35.8333,144.167 36.5,143.5 Z"/></g>
<g><path style="opacity:0.027" fill="#7c3d9a" d="M 153.5,143.5 C 154.833,144.167 154.833,144.167 153.5,143.5 Z"/></g>
<g><path style="opacity:0.027" fill="#7c3d9a" d="M 152.5,146.5 C 153.833,147.167 153.833,147.167 152.5,146.5 Z"/></g>
<g><path style="opacity:0.027" fill="#7c3d9a" d="M 150.5,150.5 C 151.833,151.167 151.833,151.167 150.5,150.5 Z"/></g>
<g><path style="opacity:0.027" fill="#7c3d9a" d="M 46.5,152.5 C 45.8333,153.167 45.8333,153.167 46.5,152.5 Z"/></g>
<g><path style="opacity:1" fill="#600c74" d="M 91.5,156.5 C 91.7208,159.097 92.2208,159.097 93,156.5C 93.9147,157.328 94.5814,158.328 95,159.5C 95.6667,155.5 96.3333,155.5 97,159.5C 97.9836,157.205 98.8169,157.539 99.5,160.5C 99.1373,161.183 98.8039,161.85 98.5,162.5C 95.0284,159.717 92.8618,160.717 92,165.5C 91.0862,164.346 90.2529,164.513 89.5,166C 89.8333,166.333 90.1667,166.667 90.5,167C 88.2769,167.652 87.1102,169.152 87,171.5C 86.935,169.117 86.1017,168.45 84.5,169.5C 81.8411,166.25 79.6745,166.25 78,169.5C 77.5814,168.328 76.9147,167.328 76,166.5C 75,167.5 74,168.5 73,169.5C 72.6667,168.5 72.3333,167.5 72,166.5C 71.7216,167.416 71.2216,168.082 70.5,168.5C 69.1667,168.167 67.8333,167.833 66.5,167.5C 65.7455,165.534 64.5788,165.2 63,166.5C 62.7165,164.114 61.7165,163.448 60,164.5C 59.6667,163.5 59.3333,162.5 59,161.5C 58.6667,161.833 58.3333,162.167 58,162.5C 57.7216,161.584 57.2216,160.918 56.5,160.5C 55.7095,159.599 54.7095,158.932 53.5,158.5C 53.5,158.167 53.5,157.833 53.5,157.5C 54.8221,157.67 55.9887,157.337 57,156.5C 57.4186,157.672 58.0853,158.672 59,159.5C 60.1544,157.043 61.4877,157.043 63,159.5C 62.8774,157.55 63.8774,155.883 66,154.5C 66.6667,155.167 67.3333,155.833 68,156.5C 69,155.5 70,154.5 71,153.5C 71.3333,154.167 71.6667,154.833 72,155.5C 72.4226,154.044 73.2559,153.544 74.5,154C 73.5494,154.718 73.3828,155.551 74,156.5C 75.147,154.269 76.147,151.935 77,149.5C 77.4186,150.672 78.0853,151.672 79,152.5C 80.3333,152.5 81.6667,152.5 83,152.5C 83.6667,155.167 84.3333,155.167 85,152.5C 85.6667,155.167 86.3333,155.167 87,152.5C 87.7475,154.751 89.2475,156.084 91.5,156.5 Z"/></g>
<g><path style="opacity:1" fill="#60096a" d="M 140.5,127.5 C 140.804,128.15 141.137,128.817 141.5,129.5C 140.341,134.587 139.341,139.42 138.5,144C 136.415,146.876 134.248,149.709 132,152.5C 130.057,152.041 128.724,153.041 128,155.5C 127.667,154.833 127.333,154.167 127,153.5C 126.683,155.301 126.016,155.634 125,154.5C 125.152,156.076 125.985,157.409 127.5,158.5C 126.044,158.322 124.711,159.156 123.5,161C 124.517,162.049 124.684,163.216 124,164.5C 123.667,163.833 123.333,163.167 123,162.5C 122.722,163.416 122.222,164.082 121.5,164.5C 120.316,166.41 118.816,166.743 117,165.5C 116.333,169.5 115.667,169.5 115,165.5C 114.333,169.5 113.667,169.5 113,165.5C 112.667,166.167 112.333,166.833 112,167.5C 111,165.833 110,164.167 109,162.5C 108.667,163.167 108.333,163.833 108,164.5C 107.065,159.998 105.731,159.665 104,163.5C 103.581,159.148 102.914,158.815 102,162.5C 101.667,161.5 101.333,160.5 101,159.5C 100.764,161.119 99.9311,162.119 98.5,162.5C 98.8039,161.85 99.1373,161.183 99.5,160.5C 98.8169,157.539 97.9836,157.205 97,159.5C 96.3333,155.5 95.6667,155.5 95,159.5C 94.5814,158.328 93.9147,157.328 93,156.5C 92.2208,159.097 91.7208,159.097 91.5,156.5C 91.3893,155.883 91.056,155.383 90.5,155C 92.7727,151.205 95.2727,150.705 98,153.5C 98.4696,152.423 98.3029,151.423 97.5,150.5C 98.4405,147.875 99.6072,147.875 101,150.5C 102.268,150.384 103.602,150.051 105,149.5C 106.779,152.276 107.779,151.943 108,148.5C 108.667,149.833 109.333,149.833 110,148.5C 111.204,149.471 111.704,150.471 111.5,151.5C 113.593,149.757 115.76,149.09 118,149.5C 118.333,150.167 118.667,150.833 119,151.5C 119.419,150.328 120.085,149.328 121,148.5C 122.398,149.051 123.732,149.384 125,149.5C 125.667,146.833 126.333,146.833 127,149.5C 128.67,149.044 130.17,147.711 131.5,145.5C 133.623,144.217 135.623,142.717 137.5,141C 137.167,140.667 136.833,140.333 136.5,140C 138.75,136.022 140.083,131.855 140.5,127.5 Z"/></g>
<g><path style="opacity:0.027" fill="#7c3d9a" d="M 148.5,154.5 C 149.833,155.167 149.833,155.167 148.5,154.5 Z"/></g>
<g><path style="opacity:0.027" fill="#7c3d9a" d="M 146.5,157.5 C 147.833,158.167 147.833,158.167 146.5,157.5 Z"/></g>
<g><path style="opacity:0.027" fill="#7c3d9a" d="M 53.5,158.5 C 52.8333,159.167 52.8333,159.167 53.5,158.5 Z"/></g>
<g><path style="opacity:0.027" fill="#7c3d9a" d="M 145.5,158.5 C 145.833,158.5 146.167,158.5 146.5,158.5C 146.315,159.17 145.981,159.17 145.5,158.5 Z"/></g>
<g><path style="opacity:0.027" fill="#7c3d9a" d="M 56.5,160.5 C 55.8333,161.167 55.8333,161.167 56.5,160.5 Z"/></g>
<g><path style="opacity:0.998" fill="#670e75" d="M 121.5,164.5 C 121.414,165.496 121.748,166.329 122.5,167C 120.963,168.11 120.297,169.61 120.5,171.5C 122.5,171.5 124.5,171.5 126.5,171.5C 125.167,172.5 123.833,173.5 122.5,174.5C 119.784,174.386 117.784,175.386 116.5,177.5C 116.167,177.5 115.833,177.5 115.5,177.5C 115.167,176.167 114.833,176.167 114.5,177.5C 114.167,177.5 113.833,177.5 113.5,177.5C 113.167,176.167 112.833,176.167 112.5,177.5C 105.167,177.5 97.8333,177.5 90.5,177.5C 89.0813,176.549 87.4147,176.216 85.5,176.5C 81.783,174.313 77.783,172.646 73.5,171.5C 73.1583,170.662 72.4916,170.328 71.5,170.5C 71.1667,169.833 70.8333,169.167 70.5,168.5C 71.2216,168.082 71.7216,167.416 72,166.5C 72.3333,167.5 72.6667,168.5 73,169.5C 74,168.5 75,167.5 76,166.5C 76.9147,167.328 77.5814,168.328 78,169.5C 79.6745,166.25 81.8411,166.25 84.5,169.5C 86.1017,168.45 86.935,169.117 87,171.5C 87.1102,169.152 88.2769,167.652 90.5,167C 90.1667,166.667 89.8333,166.333 89.5,166C 90.2529,164.513 91.0862,164.346 92,165.5C 92.8618,160.717 95.0284,159.717 98.5,162.5C 99.9311,162.119 100.764,161.119 101,159.5C 101.333,160.5 101.667,161.5 102,162.5C 102.914,158.815 103.581,159.148 104,163.5C 105.731,159.665 107.065,159.998 108,164.5C 108.333,163.833 108.667,163.167 109,162.5C 110,164.167 111,165.833 112,167.5C 112.333,166.833 112.667,166.167 113,165.5C 113.667,169.5 114.333,169.5 115,165.5C 115.667,169.5 116.333,169.5 117,165.5C 118.816,166.743 120.316,166.41 121.5,164.5 Z"/></g>
<g><path style="opacity:0.027" fill="#7c3d9a" d="M 142.5,162.5 C 143.833,163.167 143.833,163.167 142.5,162.5 Z"/></g>
<g><path style="opacity:0.027" fill="#7c3d9a" d="M 66.5,167.5 C 65.8333,168.167 65.8333,168.167 66.5,167.5 Z"/></g>
<g><path style="opacity:0.027" fill="#7c3d9a" d="M 134.5,168.5 C 135.833,169.167 135.833,169.167 134.5,168.5 Z"/></g>
<g><path style="opacity:0.027" fill="#7c3d9a" d="M 68.5,169.5 C 69.8333,170.167 69.8333,170.167 68.5,169.5 Z"/></g>
<g><path style="opacity:0.027" fill="#7c3d9a" d="M 71.5,170.5 C 70.8333,171.167 70.8333,171.167 71.5,170.5 Z"/></g>
<g><path style="opacity:0.027" fill="#7c3d9a" d="M 131.5,170.5 C 132.833,171.167 132.833,171.167 131.5,170.5 Z"/></g>
<g><path style="opacity:0.027" fill="#7c3d9a" d="M 73.5,171.5 C 72.8333,172.167 72.8333,172.167 73.5,171.5 Z"/></g>
<g><path style="opacity:0.027" fill="#7c3d9a" d="M 76.5,173.5 C 77.8333,174.167 77.8333,174.167 76.5,173.5 Z"/></g>
<g><path style="opacity:0.027" fill="#7c3d9a" d="M 78.5,174.5 C 79.8333,175.167 79.8333,175.167 78.5,174.5 Z"/></g>
<g><path style="opacity:0.027" fill="#7c3d9a" d="M 122.5,174.5 C 123.833,175.167 123.833,175.167 122.5,174.5 Z"/></g>
<g><path style="opacity:0.027" fill="#7c3d9a" d="M 81.5,175.5 C 82.8333,176.167 82.8333,176.167 81.5,175.5 Z"/></g>
<g><path style="opacity:0.027" fill="#7c3d9a" d="M 120.5,175.5 C 121.833,176.167 121.833,176.167 120.5,175.5 Z"/></g>
<g><path style="opacity:0.027" fill="#7c3d9a" d="M 85.5,176.5 C 85.5,176.833 85.5,177.167 85.5,177.5C 84.8299,177.019 84.8299,176.685 85.5,176.5 Z"/></g>
<g><path style="opacity:0.027" fill="#7c3d9a" d="M 118.5,177.5 C 117.833,176.167 117.833,176.167 118.5,177.5 Z"/></g>
</svg>
