<svg viewBox="0 0 720 673" fill="none" xmlns="http://www.w3.org/2000/svg">

    <style>

    @keyframes iconleft {
        0% {
            transform: translateX(0);
        }

        50% {
            transform: translateX(5px);
        }

        100% {
            transform: translateX(0px);
        }
    }


        #path-1,#path-2{
			animation: iconleft 2s ease-in-out infinite;
		}
    
    </style>



    <g clip-path="url(#clip0_82_4725)">
        <path id="path-1" d="M103.636 188.148L106.672 194.263L113.438 195.254L108.546 200.023L109.708 206.755L103.636 203.576L97.5831 206.755L98.745 200.023L93.835 195.254L100.619 194.263L103.636 188.148Z" fill="#EBEBEB"/>
        <path id="path-1" d="M710.18 476.568L713.216 482.702L720 483.693L715.09 488.462L716.252 495.194L710.18 492.015L704.127 495.194L705.289 488.462L700.379 483.693L707.163 482.702L710.18 476.568Z" fill="#F5F5F5"/>
        <path id="path-1" d="M590.053 654.393L593.07 660.508L599.854 661.499L594.944 666.268L596.106 673L590.053 669.821L583.981 673L585.143 666.268L580.232 661.499L587.017 660.508L590.053 654.393Z" fill="#F5F5F5"/>
        <path id="path-1" d="M315.201 79.4966L316.325 81.7781L318.837 82.1334C319.474 82.2269 319.718 82.9936 319.268 83.4424L317.45 85.219L317.881 87.7249C317.993 88.342 317.337 88.8282 316.775 88.529L314.526 87.3509L312.278 88.529C311.715 88.8282 311.059 88.342 311.172 87.7249L311.603 85.219L309.785 83.4424C309.335 82.9936 309.579 82.2269 310.216 82.1334L312.727 81.7781L313.852 79.4966C314.114 78.9356 314.92 78.9356 315.201 79.4966Z" fill="#EBEBEB"/>
        <path id="path-1" d="M5.66004 625.295L6.78448 627.576L9.29574 627.95C9.93292 628.044 10.1766 628.81 9.72678 629.259L7.90893 631.036L8.33996 633.542C8.45241 634.159 7.79648 634.645 7.23426 634.346L4.98537 633.168L2.73649 634.346C2.17426 634.645 1.51834 634.159 1.63078 633.542L2.06182 631.036L0.243969 629.259C-0.205809 628.81 0.0378209 628.044 0.675006 627.95L3.18626 627.576L4.31071 625.295C4.57308 624.715 5.39767 624.715 5.66004 625.295Z" fill="#F5F5F5"/>
        <path id="path-1" d="M56.2225 55.4663L57.347 57.7478L59.8582 58.1031C60.4767 58.1966 60.739 58.9633 60.2893 59.4121L58.4714 61.1887L58.9025 63.6946C59.0149 64.3117 58.359 64.7979 57.7968 64.4987L55.5479 63.3206L53.299 64.4987C52.7368 64.7979 52.0808 64.3117 52.1933 63.6946L52.6243 61.1887L50.8065 59.4121C50.3567 58.9633 50.6003 58.1966 51.2375 58.1031L53.7488 57.7478L54.8732 55.4663C55.1356 54.9053 55.9414 54.9053 56.2225 55.4663Z" fill="#EBEBEB"/>
        <path id="path-1" d="M53.1862 506.19C53.1862 507.555 52.0805 508.677 50.6937 508.677C49.3256 508.677 48.2012 507.574 48.2012 506.19C48.2012 504.825 49.3069 503.703 50.6937 503.703C52.0618 503.703 53.1862 504.825 53.1862 506.19Z" fill="#EBEBEB"/>
        <path id="path-1" d="M408.398 194.955C408.398 196.32 407.292 197.442 405.906 197.442C404.538 197.442 403.413 196.338 403.413 194.955C403.413 193.589 404.519 192.467 405.906 192.467C407.292 192.486 408.398 193.589 408.398 194.955Z" fill="#EBEBEB"/>
        <path id="path-1" d="M279.162 57.5233C279.162 58.8885 278.056 60.0105 276.669 60.0105C275.301 60.0105 274.177 58.9072 274.177 57.5233C274.177 56.1395 275.282 55.0361 276.669 55.0361C278.037 55.0361 279.162 56.1582 279.162 57.5233Z" fill="#F5F5F5"/>
        <path id="path-1" d="M283.152 663.629C290.556 661.884 295.14 654.481 293.392 647.093C291.644 639.706 284.225 635.131 276.821 636.875C269.418 638.62 264.833 646.023 266.581 653.411C268.33 660.798 275.748 665.373 283.152 663.629Z" fill="#F0F0F0"/>
        <path id="path-1" d="M275.207 642.275C272.284 642.275 269.567 643.21 267.355 644.818C266.624 646.501 266.212 648.353 266.212 650.297C266.212 657.89 272.378 664.024 279.986 664.024C282.554 664.024 284.971 663.313 287.033 662.079C287.014 662.06 287.014 662.06 287.033 662.06C288.064 660.153 288.645 657.983 288.645 655.665C288.645 648.278 282.629 642.275 275.207 642.275Z" fill="#E6E6E6"/>
        <path id="path-4" d="M168.536 411.434H54.4795V360.063L168.536 224.782H223.109V362.98H251.388V411.452H223.109V453.473H168.536V411.434ZM168.536 362.962V292.198L108.265 362.962H168.536Z" fill="#5F2DDE"/>
        <path id="path-4" d="M270.897 340.109C270.897 297.378 278.6 267.457 294.024 250.383C309.447 233.31 332.929 224.763 364.489 224.763C379.65 224.763 392.094 226.633 401.839 230.355C411.565 234.095 419.511 238.939 425.658 244.923C431.805 250.907 436.64 257.19 440.182 263.792C443.724 270.393 446.554 278.079 448.709 286.868C452.907 303.643 455.006 321.128 455.006 339.324C455.006 380.129 448.091 409.975 434.26 428.9C420.43 447.825 396.61 457.269 362.783 457.269C343.818 457.269 328.506 454.258 316.831 448.218C305.155 442.177 295.56 433.351 288.083 421.682C282.648 413.397 278.431 402.083 275.395 387.702C272.415 373.359 270.897 357.482 270.897 340.109ZM332.985 340.259C332.985 368.89 335.515 388.45 340.594 398.923C345.673 409.395 353.019 414.65 362.652 414.65C369.005 414.65 374.515 412.425 379.181 407.974C383.848 403.523 387.277 396.492 389.489 386.88C391.7 377.267 392.787 362.288 392.787 341.942C392.787 312.096 390.257 292.03 385.178 281.744C380.1 271.459 372.491 266.335 362.352 266.335C352.007 266.335 344.53 271.571 339.92 282.062C335.291 292.535 332.985 311.946 332.985 340.259Z" fill="#5F2DDE"/>
        <path id="path-4" d="M588.441 411.434H474.403V360.063L588.441 224.782H643.014V362.98H671.293V411.452H643.014V453.473H588.441V411.434ZM588.441 362.961V292.198L528.17 362.961H588.441Z" fill="#5F2DDE"/>
        <g opacity="0.3">
            <path d="M268.367 145.828C268.367 147.754 266.793 149.325 264.863 149.325C262.933 149.325 261.358 147.754 261.358 145.828C261.358 143.902 262.933 142.331 264.863 142.331C266.793 142.331 268.367 143.902 268.367 145.828Z" fill="#5F2DDE"/>
            <path d="M28.505 280.155C29.8713 280.155 30.9788 279.05 30.9788 277.686C30.9788 276.323 29.8713 275.218 28.505 275.218C27.1388 275.218 26.0312 276.323 26.0312 277.686C26.0312 279.05 27.1388 280.155 28.505 280.155Z" fill="#5F2DDE"/>
            <path d="M437.222 640.648C439.178 640.648 440.764 639.065 440.764 637.113C440.764 635.161 439.178 633.579 437.222 633.579C435.265 633.579 433.68 635.161 433.68 637.113C433.68 639.065 435.265 640.648 437.222 640.648Z" fill="#5F2DDE"/>
            <path d="M522.398 496.84C523.764 496.84 524.871 495.734 524.871 494.371C524.871 493.008 523.764 491.903 522.398 491.903C521.031 491.903 519.924 493.008 519.924 494.371C519.924 495.734 521.031 496.84 522.398 496.84Z" fill="#5F2DDE"/>
            <path d="M686.698 52.3244C686.698 53.6896 685.592 54.7929 684.224 54.7929C682.856 54.7929 681.75 53.6896 681.75 52.3244C681.75 50.9593 682.856 49.856 684.224 49.856C685.592 49.856 686.698 50.9593 686.698 52.3244Z" fill="#5F2DDE"/>
            <path d="M215.519 2.46849C215.519 3.83364 214.413 4.93698 213.045 4.93698C211.677 4.93698 210.571 3.83364 210.571 2.46849C210.571 1.10334 211.677 0 213.045 0C214.413 0 215.519 1.10334 215.519 2.46849Z" fill="#5F2DDE"/>
            <path d="M412.185 132.064C413.551 132.064 414.658 130.959 414.658 129.596C414.658 128.232 413.551 127.127 412.185 127.127C410.818 127.127 409.711 128.232 409.711 129.596C409.711 130.959 410.818 132.064 412.185 132.064Z" fill="#5F2DDE"/>
        </g>
        <path id="path-2" d="M156.448 132.083C179.125 132.083 197.509 113.739 197.509 91.1097C197.509 68.4808 179.125 50.1365 156.448 50.1365C133.77 50.1365 115.387 68.4808 115.387 91.1097C115.387 113.739 133.77 132.083 156.448 132.083Z" fill="#5F2DDE"/>
        <path id="path-2" opacity="0.7" d="M156.448 132.083C179.125 132.083 197.509 113.739 197.509 91.1097C197.509 68.4808 179.125 50.1365 156.448 50.1365C133.77 50.1365 115.387 68.4808 115.387 91.1097C115.387 113.739 133.77 132.083 156.448 132.083Z" fill="white"/>
        <path id="path-2" opacity="0.2" d="M142.298 60.1974C136.545 60.1974 131.073 61.3755 126.106 63.5074C119.453 70.782 115.387 80.4876 115.387 91.1096C115.387 113.737 133.771 132.064 156.429 132.064C162.201 132.064 167.711 130.886 172.696 128.735C172.696 128.735 172.696 128.735 172.696 128.717C179.311 121.442 183.341 111.774 183.341 101.171C183.378 78.5428 164.993 60.1974 142.298 60.1974Z" fill="#5F2DDE"/>
        <path id="path-2" opacity="0.2" d="M138.213 71.0252C138.213 73.1009 136.526 74.7653 134.465 74.7653C132.403 74.7653 130.717 73.0822 130.717 71.0252C130.717 68.9494 132.403 67.285 134.465 67.285C136.526 67.285 138.213 68.9681 138.213 71.0252Z" fill="#5F2DDE"/>
        <path id="path-2" opacity="0.2" d="M182.366 67.2851C182.366 69.3608 180.68 71.0252 178.618 71.0252C176.538 71.0252 174.87 69.3421 174.87 67.2851C174.87 65.2093 176.557 63.5449 178.618 63.5449C180.698 63.5449 182.366 65.2093 182.366 67.2851Z" fill="#5F2DDE"/>
        <path id="path-2" opacity="0.2" d="M174.87 93.9895C174.87 97.3744 172.115 100.123 168.723 100.123C165.331 100.123 162.576 97.3744 162.576 93.9895C162.576 90.6047 165.331 87.8557 168.723 87.8557C172.115 87.8557 174.87 90.6047 174.87 93.9895Z" fill="#5F2DDE"/>
        <path id="path-2" opacity="0.2" d="M155.342 111.475C155.342 116 151.669 119.666 147.133 119.666C142.598 119.666 138.925 116 138.925 111.475C138.925 106.949 142.598 103.284 147.133 103.284C151.669 103.284 155.342 106.949 155.342 111.475Z" fill="#5F2DDE"/>
        <path id="path-2" d="M643.11 585.433C647.684 566.104 635.689 546.735 616.319 542.171C596.949 537.607 577.539 549.576 572.965 568.905C568.391 588.234 580.386 607.603 599.756 612.167C619.126 616.731 638.537 604.762 643.11 585.433Z" fill="#5F2DDE"/>
        <path id="path-2" opacity="0.3" d="M643.11 585.433C647.684 566.104 635.689 546.735 616.319 542.171C596.949 537.607 577.539 549.576 572.965 568.905C568.391 588.234 580.386 607.603 599.756 612.167C619.126 616.731 638.537 604.762 643.11 585.433Z" fill="white"/>
        <path id="path-2" opacity="0.4" d="M630.776 549.239C627.497 548.248 624.011 547.724 620.394 547.724C600.491 547.724 584.355 563.825 584.355 583.685C584.355 594.943 589.528 604.967 597.643 611.568C600.922 612.559 604.408 613.083 608.025 613.083C627.928 613.083 644.063 596.982 644.063 577.122C644.063 565.864 638.891 555.822 630.776 549.239Z" fill="#5F2DDE"/>
        <path id="path-2" d="M573.617 587.781C535.142 605.846 563.834 619.778 618.051 600.329C668.239 582.32 687.335 559.618 642.508 566.649C644.831 576.205 581.956 600.647 573.617 587.781Z" fill="#5F2DDE"/>
        <path id="path-2" opacity="0.2" d="M630.345 224.763C579.951 258.743 514.715 303.549 496.705 411.415H492.863C510.386 304.858 573.242 258.873 623.655 224.763H630.345Z" fill="black"/>
        <path id="path-2" d="M369.699 562.198C337.896 562.198 306.337 547.874 291.007 524.442C281.543 509.967 270.542 479.654 303.301 439.204L306.224 441.56C283.061 470.172 278.769 498.878 294.155 522.403C312.877 551.034 357.124 565.434 394.849 555.186C433.511 544.695 456.975 511.127 459.242 463.122C466.982 298.912 554.408 248.345 618.257 211.411C657.913 188.465 686.567 171.878 680.27 136.908C679.39 132.064 677.459 128.698 674.348 126.66C666.196 121.293 650.267 124.995 631.826 129.296C595.637 137.712 546.087 149.231 516.57 99.1323L519.794 97.2435C547.923 144.968 593.969 134.271 630.964 125.669C650.248 121.18 666.908 117.309 676.41 123.555C680.42 126.192 682.894 130.362 683.962 136.272C690.728 173.823 659.581 191.85 620.131 214.665C557.05 251.169 470.637 301.156 462.99 463.328C460.648 513.072 436.172 547.874 395.842 558.814C387.334 561.095 378.488 562.198 369.699 562.198Z" fill="#5F2DDE"/>
        <path id="path-2" opacity="0.2" d="M369.699 562.198C337.896 562.198 306.337 547.874 291.007 524.442C281.543 509.967 270.542 479.654 303.301 439.204L306.224 441.56C283.061 470.172 278.769 498.878 294.155 522.403C312.877 551.034 357.124 565.434 394.849 555.186C433.511 544.695 456.975 511.127 459.242 463.122C466.982 298.912 554.408 248.345 618.257 211.411C657.913 188.465 686.567 171.878 680.27 136.908C679.39 132.064 677.459 128.698 674.348 126.66C666.196 121.293 650.267 124.995 631.826 129.296C595.637 137.712 546.087 149.231 516.57 99.1323L519.794 97.2435C547.923 144.968 593.969 134.271 630.964 125.669C650.248 121.18 666.908 117.309 676.41 123.555C680.42 126.192 682.894 130.362 683.962 136.272C690.728 173.823 659.581 191.85 620.131 214.665C557.05 251.169 470.637 301.156 462.99 463.328C460.648 513.072 436.172 547.874 395.842 558.814C387.334 561.095 378.488 562.198 369.699 562.198Z" fill="white"/>
        <path id="path-2" d="M477.908 54.8116C490.764 54.5872 503.358 58.7949 503.358 58.7949C503.358 58.7949 523.898 93.8961 526.409 101.937C525.547 109.866 512.129 122.863 512.129 122.863L477.908 54.8116Z" fill="#5F2DDE"/>
        <path id="path-2" opacity="0.3" d="M477.908 54.8116C490.764 54.5872 503.358 58.7949 503.358 58.7949C503.358 58.7949 523.898 93.8961 526.409 101.937C525.547 109.866 512.129 122.863 512.129 122.863L477.908 54.8116Z" fill="white"/>
        <path id="path-2" d="M538.965 225.324C531.207 215.507 523.598 205.52 517.301 194.693C515.727 191.981 514.228 189.232 512.822 186.427C512.016 184.837 511.248 183.229 510.498 181.621C509.842 180.218 508.381 178.143 508.249 176.609C506.001 152.915 514.134 135.468 506.319 116.449L475.453 128.492C475.453 128.492 478.077 162.378 484.074 182.649C487.785 195.235 496.199 206.119 504.314 216.199C506.844 219.359 509.299 222.575 511.829 225.736C514.228 228.728 516.908 231.458 519.306 234.432C522.961 238.939 524.16 243.258 521.387 248.569C521.237 248.85 521.087 249.13 520.918 249.411C520.131 250.795 523.823 252.366 526.128 249.448C529.951 244.624 529.351 244.923 532.612 240.809C534.599 238.303 536.866 235.61 538.834 233.272C540.765 230.991 540.802 227.681 538.965 225.324Z" fill="#5F2DDE"/>
        <path id="path-2" opacity="0.7" d="M538.965 225.324C531.207 215.507 523.598 205.52 517.301 194.693C515.727 191.981 514.228 189.232 512.822 186.427C512.016 184.837 511.248 183.229 510.498 181.621C509.842 180.218 508.381 178.143 508.249 176.609C506.001 152.915 514.134 135.468 506.319 116.449L475.453 128.492C475.453 128.492 478.077 162.378 484.074 182.649C487.785 195.235 496.199 206.119 504.314 216.199C506.844 219.359 509.299 222.575 511.829 225.736C514.228 228.728 516.908 231.458 519.306 234.432C522.961 238.939 524.16 243.258 521.387 248.569C521.237 248.85 521.087 249.13 520.918 249.411C520.131 250.795 523.823 252.366 526.128 249.448C529.951 244.624 529.351 244.923 532.612 240.809C534.599 238.303 536.866 235.61 538.834 233.272C540.765 230.991 540.802 227.681 538.965 225.324Z" fill="white"/>
        <path id="path-2" opacity="0.3" d="M531.413 215.581C527.271 220.575 518.876 227.026 515.184 229.644C515.989 230.542 516.795 231.458 517.582 232.375C525.21 227.4 531.226 220.967 533.512 218.349C532.819 217.433 532.106 216.498 531.413 215.581Z" fill="#5F2DDE"/>
        <path id="path-2" opacity="0.3" d="M538.947 225.343C538.872 225.25 538.797 225.175 538.722 225.063C537.429 226.409 536.511 228.578 536.361 230.991C536.23 232.655 536.511 234.189 537.073 235.385C537.692 234.656 538.272 233.945 538.853 233.272C540.784 230.991 540.802 227.681 538.947 225.343Z" fill="#5F2DDE"/>
        <path id="path-2" d="M470.561 77.2525C467.338 81.9464 463.534 86.5654 458.605 90.6983C456.169 92.774 453.376 94.6628 450.321 96.2711C448.785 97.0565 447.154 97.7297 445.486 98.2907L444.231 98.7022L443.818 98.8331C443.519 98.9266 443.219 99.0014 442.919 99.0762C442.357 99.2071 441.776 99.2819 441.288 99.338C439.264 99.4876 437.784 99.2071 436.585 98.9079C434.186 98.2533 432.593 97.3931 431.075 96.5516C429.575 95.6914 428.282 94.8124 427.045 93.9148C424.609 92.0634 422.398 90.1933 420.336 88.2111C416.195 84.2652 412.521 80.1698 409.111 75.6068C407.555 73.5311 407.986 70.595 410.066 69.0429C411.678 67.846 413.796 67.8273 415.389 68.8372L415.539 68.9307C419.961 71.7358 424.422 74.6905 428.77 77.3273C430.962 78.6176 433.117 79.9267 435.235 80.9365C436.266 81.4601 437.297 81.9464 438.215 82.283C439.114 82.6383 439.995 82.8253 440.239 82.7879C440.333 82.7879 440.22 82.657 439.527 82.6757C439.358 82.6757 439.114 82.7131 438.89 82.7505C438.758 82.7692 438.608 82.8066 438.477 82.8627C438.346 82.9001 438.534 82.8253 438.534 82.8253L439.152 82.5074C439.977 82.096 440.764 81.5723 441.57 81.03C443.181 79.9454 444.699 78.5802 446.255 77.0655C449.347 74.0173 452.308 70.2023 455.438 66.2378L455.475 66.1817C458.68 62.1236 464.583 61.4317 468.65 64.6482C472.548 67.6777 473.316 73.2318 470.561 77.2525Z" fill="#5F2DDE"/>
        <path id="path-2" opacity="0.7" d="M470.561 77.2525C467.338 81.9464 463.534 86.5654 458.605 90.6983C456.169 92.774 453.376 94.6628 450.321 96.2711C448.785 97.0565 447.154 97.7297 445.486 98.2907L444.231 98.7022L443.818 98.8331C443.519 98.9266 443.219 99.0014 442.919 99.0762C442.357 99.2071 441.776 99.2819 441.288 99.338C439.264 99.4876 437.784 99.2071 436.585 98.9079C434.186 98.2533 432.593 97.3931 431.075 96.5516C429.575 95.6914 428.282 94.8124 427.045 93.9148C424.609 92.0634 422.398 90.1933 420.336 88.2111C416.195 84.2652 412.521 80.1698 409.111 75.6068C407.555 73.5311 407.986 70.595 410.066 69.0429C411.678 67.846 413.796 67.8273 415.389 68.8372L415.539 68.9307C419.961 71.7358 424.422 74.6905 428.77 77.3273C430.962 78.6176 433.117 79.9267 435.235 80.9365C436.266 81.4601 437.297 81.9464 438.215 82.283C439.114 82.6383 439.995 82.8253 440.239 82.7879C440.333 82.7879 440.22 82.657 439.527 82.6757C439.358 82.6757 439.114 82.7131 438.89 82.7505C438.758 82.7692 438.608 82.8066 438.477 82.8627C438.346 82.9001 438.534 82.8253 438.534 82.8253L439.152 82.5074C439.977 82.096 440.764 81.5723 441.57 81.03C443.181 79.9454 444.699 78.5802 446.255 77.0655C449.347 74.0173 452.308 70.2023 455.438 66.2378L455.475 66.1817C458.68 62.1236 464.583 61.4317 468.65 64.6482C472.548 67.6777 473.316 73.2318 470.561 77.2525Z" fill="white"/>
        <path id="path-2" d="M402.046 65.0409L404.238 68.725C404.238 68.725 405.925 73.6245 409.28 74.5222L418.369 71.5862L417.919 70.8007C417.919 70.8007 417.919 70.8007 417.938 70.8007C416.776 69.0242 416.907 65.6207 417.301 62.7781C417.713 59.9356 416.232 59.8421 415.145 60.5341C414.508 60.9455 414.077 62.2358 413.553 63.6384C413.103 63.0213 412.634 62.4228 412.091 61.8992L409.317 59.1315C408.118 57.9347 406.187 57.8786 404.932 59.0006L402.683 61.0016C401.521 62.0301 401.259 63.7132 402.046 65.0409Z" fill="#5F2DDE"/>
        <path id="path-2" opacity="0.7" d="M402.046 65.0409L404.238 68.725C404.238 68.725 405.925 73.6245 409.28 74.5222L418.369 71.5862L417.919 70.8007C417.919 70.8007 417.919 70.8007 417.938 70.8007C416.776 69.0242 416.907 65.6207 417.301 62.7781C417.713 59.9356 416.232 59.8421 415.145 60.5341C414.508 60.9455 414.077 62.2358 413.553 63.6384C413.103 63.0213 412.634 62.4228 412.091 61.8992L409.317 59.1315C408.118 57.9347 406.187 57.8786 404.932 59.0006L402.683 61.0016C401.521 62.0301 401.259 63.7132 402.046 65.0409Z" fill="white"/>
        <path id="path-2" d="M487.11 51.5764C478.396 53.6896 466.42 58.6453 458.343 63.6757C455.476 65.4523 454.051 68.8371 454.726 72.1285C458.324 89.7819 466.551 113.42 475.435 128.474L516.87 111.362C517.151 104.069 507.088 80.469 496.855 57.6541C495.019 53.5774 491.495 50.5292 487.11 51.5764Z" fill="#5F2DDE"/>
        <path id="path-2" opacity="0.8" d="M487.11 51.5764C478.396 53.6896 466.42 58.6453 458.343 63.6757C455.476 65.4523 454.051 68.8371 454.726 72.1285C458.324 89.7819 466.551 113.42 475.435 128.474L516.87 111.362C517.151 104.069 507.088 80.469 496.855 57.6541C495.019 53.5774 491.495 50.5292 487.11 51.5764Z" fill="white"/>
        <path id="path-2" opacity="0.3" d="M503.264 72.1285L495.037 69.3795C496.874 74.1856 503.527 80.2633 508.212 83.8351C506.675 80.095 505.007 76.1679 503.264 72.1285Z" fill="#5F2DDE"/>
        <path id="path-2" d="M484.393 33.0628C480.982 26.5549 473.579 23.2823 464.678 24.0117C457.181 24.6288 450.547 32.2773 451.334 36.3915C452.121 40.5243 458.418 42.2635 459.561 43.7035L454.37 47.4623C451.784 49.3324 451.278 52.979 453.246 55.4849C455.438 58.2526 458.306 61.1512 459.992 63.1896C474.348 62.8156 484.974 57.355 488.797 52.0814C487.429 45.4052 487.785 39.5332 484.393 33.0628Z" fill="#5F2DDE"/>
        <path id="path-2" opacity="0.8" d="M484.393 33.0628C480.982 26.5549 473.579 23.2823 464.678 24.0117C457.181 24.6288 450.547 32.2773 451.334 36.3915C452.121 40.5243 458.418 42.2635 459.561 43.7035L454.37 47.4623C451.784 49.3324 451.278 52.979 453.246 55.4849C455.438 58.2526 458.306 61.1512 459.992 63.1896C474.348 62.8156 484.974 57.355 488.797 52.0814C487.429 45.4052 487.785 39.5332 484.393 33.0628Z" fill="white"/>
        <path id="path-2" d="M477.346 37.1022C480.194 44.3954 476.596 52.605 469.287 55.4475C461.978 58.29 453.751 54.6995 450.903 47.4062C448.054 40.113 451.652 31.9034 458.961 29.0609C466.251 26.2184 474.497 29.8089 477.346 37.1022Z" fill="#263238"/>
        <path id="path-2" d="M599.029 205.633C598.823 199.48 598.561 200.097 598.373 194.861C598.261 191.682 598.242 188.148 598.223 185.099C598.205 182.126 596.087 179.564 593.163 178.965C590.671 178.461 588.197 177.993 585.705 177.451C582.462 176.759 579.277 176.029 576.091 175.094C573.636 174.384 571.181 173.598 568.782 172.719C566.195 171.784 563.647 170.775 561.117 169.69C558.156 168.418 555.251 167.072 552.346 165.688C549.104 164.136 545.899 162.546 542.713 160.919C530.382 140.536 530.12 127.127 516.87 111.363L488.459 124.191C488.459 124.191 509.336 161.144 523.542 176.815C531.731 185.829 544.569 189.905 556.019 192.841C564.284 194.973 572.661 196.6 581.038 198.134C584.299 198.732 587.841 198.957 590.652 200.901C592.864 202.435 594.007 204.829 594.663 207.353C594.794 207.877 594.906 208.4 595 208.924C595.319 210.532 599.142 209.354 599.029 205.633Z" fill="#5F2DDE"/>
        <path id="path-2" opacity="0.8" d="M599.029 205.633C598.823 199.48 598.561 200.097 598.373 194.861C598.261 191.682 598.242 188.148 598.223 185.099C598.205 182.126 596.087 179.564 593.163 178.965C590.671 178.461 588.197 177.993 585.705 177.451C582.462 176.759 579.277 176.029 576.091 175.094C573.636 174.384 571.181 173.598 568.782 172.719C566.195 171.784 563.647 170.775 561.117 169.69C558.156 168.418 555.251 167.072 552.346 165.688C549.104 164.136 545.899 162.546 542.713 160.919C530.382 140.536 530.12 127.127 516.87 111.363L488.459 124.191C488.459 124.191 509.336 161.144 523.542 176.815C531.731 185.829 544.569 189.905 556.019 192.841C564.284 194.973 572.661 196.6 581.038 198.134C584.299 198.732 587.841 198.957 590.652 200.901C592.864 202.435 594.007 204.829 594.663 207.353C594.794 207.877 594.906 208.4 595 208.924C595.319 210.532 599.142 209.354 599.029 205.633Z" fill="white"/>
        <path id="path-2" opacity="0.3" d="M584.618 177.208C583.494 176.965 582.369 176.721 581.226 176.441C581.32 182.893 578.284 194.057 577.159 197.423C578.34 197.647 579.539 197.872 580.72 198.096C584.018 189.232 584.543 179.844 584.618 177.208Z" fill="#5F2DDE"/>
        <path id="path-2" opacity="0.3" d="M598.223 185.081C598.204 182.089 596.105 179.545 593.182 178.947C592.601 178.835 591.982 178.704 591.401 178.592C591.533 180.349 592.62 182.388 594.456 184.015C595.656 185.099 597.024 185.81 598.26 186.147C598.223 185.773 598.223 185.436 598.223 185.081Z" fill="#5F2DDE"/>
        <path id="path-2" d="M474.685 37.2143C475.434 40.0569 472.267 43.0303 469.718 40.5805C467.657 38.5982 464.546 35.2508 461.997 33.6799C459.392 32.053 462.859 29.2105 466.963 30.3138C470.805 31.3423 473.935 34.3718 474.685 37.2143Z" fill="white"/>
        <path id="path-2" d="M474.91 127.576C473.598 128.062 475.997 130.306 475.997 130.306C475.997 130.306 502.178 121.349 518.145 112.129C518.276 110.203 516.87 109.175 516.87 109.175C516.87 109.175 497.455 119.292 474.91 127.576Z" fill="#5F2DDE"/>
        <path id="path-2" opacity="0.5" d="M474.91 127.576C473.598 128.062 475.997 130.306 475.997 130.306C475.997 130.306 502.178 121.349 518.145 112.129C518.276 110.203 516.87 109.175 516.87 109.175C516.87 109.175 497.455 119.292 474.91 127.576Z" fill="white"/>
        <path id="path-2" d="M494.213 50.3422C499.385 52.9416 504.239 55.7093 509.111 58.7575C511.529 60.2722 513.947 61.8431 516.308 63.5262C518.707 65.1718 521.049 66.911 523.429 68.8746L524.31 69.6039L525.416 70.595C526.203 71.2869 526.784 71.9228 527.365 72.5586C527.965 73.2131 528.471 73.8489 528.958 74.4848C529.464 75.1206 529.951 75.7564 530.401 76.3735C532.256 78.8607 533.774 81.3853 535.255 83.8912C538.141 88.9778 540.633 94.0457 542.695 99.5063C543.613 101.937 542.376 104.649 539.94 105.565C538.103 106.257 536.117 105.734 534.842 104.387L534.749 104.294C530.982 100.31 527.365 96.1214 523.729 92.213C520.168 88.3233 516.402 84.34 513.347 82.6008C509.093 79.9453 504.351 77.3273 499.647 74.7279L485.479 66.8736L485.442 66.8549C480.907 64.349 479.276 58.664 481.787 54.1384C484.242 49.7625 489.734 48.0981 494.213 50.3422Z" fill="#5F2DDE"/>
        <path id="path-2" opacity="0.8" d="M494.213 50.3422C499.385 52.9416 504.239 55.7093 509.111 58.7575C511.529 60.2722 513.947 61.8431 516.308 63.5262C518.707 65.1718 521.049 66.911 523.429 68.8746L524.31 69.6039L525.416 70.595C526.203 71.2869 526.784 71.9228 527.365 72.5586C527.965 73.2131 528.471 73.8489 528.958 74.4848C529.464 75.1206 529.951 75.7564 530.401 76.3735C532.256 78.8607 533.774 81.3853 535.255 83.8912C538.141 88.9778 540.633 94.0457 542.695 99.5063C543.613 101.937 542.376 104.649 539.94 105.565C538.103 106.257 536.117 105.734 534.842 104.387L534.749 104.294C530.982 100.31 527.365 96.1214 523.729 92.213C520.168 88.3233 516.402 84.34 513.347 82.6008C509.093 79.9453 504.351 77.3273 499.647 74.7279L485.479 66.8736L485.442 66.8549C480.907 64.349 479.276 58.664 481.787 54.1384C484.242 49.7625 489.734 48.0981 494.213 50.3422Z" fill="white"/>
        <path id="path-2" d="M547.193 108.651L545.6 104.668C545.6 104.668 544.719 99.581 541.533 98.1598L532.088 99.6371L532.425 100.46C532.425 100.46 532.425 100.46 532.406 100.46C533.287 102.386 532.612 105.752 531.769 108.483C530.926 111.232 532.369 111.549 533.549 111.026C534.243 110.727 534.88 109.511 535.611 108.202C535.948 108.875 536.342 109.549 536.792 110.166L539.097 113.326C540.09 114.691 541.983 115.046 543.407 114.13L545.937 112.503C547.249 111.699 547.774 110.072 547.193 108.651Z" fill="#5F2DDE"/>
        <path id="path-2" opacity="0.8" d="M547.193 108.651L545.6 104.668C545.6 104.668 544.719 99.581 541.533 98.1598L532.088 99.6371L532.425 100.46C532.425 100.46 532.425 100.46 532.406 100.46C533.287 102.386 532.612 105.752 531.769 108.483C530.926 111.232 532.369 111.549 533.549 111.026C534.243 110.727 534.88 109.511 535.611 108.202C535.948 108.875 536.342 109.549 536.792 110.166L539.097 113.326C540.09 114.691 541.983 115.046 543.407 114.13L545.937 112.503C547.249 111.699 547.774 110.072 547.193 108.651Z" fill="white"/>
        <path id="path-2" opacity="0.3" d="M486.285 71.848L483.999 72.035L469.962 105.846C470.787 105.902 471.536 105.827 472.248 105.659C472.248 105.659 490.539 98.8518 496.068 96.3646C492.357 88.6599 486.285 71.848 486.285 71.848Z" fill="#5F2DDE"/>
        <path id="path-2" d="M460.686 80.7121C461.473 86.8086 466.045 99.7494 469.981 105.846C476.84 103.49 488.272 99.0388 493.8 96.5516C490.071 88.8469 486.154 78.225 483.999 72.035C478.114 72.4277 465.24 77.2525 460.686 80.7121Z" fill="white"/>
        <path id="path-2" opacity="0.3" d="M474.61 88.0241C473.842 90.5674 471.143 92.026 468.594 91.2593C466.046 90.4926 464.584 87.7997 465.352 85.2564C466.121 82.7131 468.819 81.2544 471.368 82.0212C473.917 82.7879 475.379 85.4808 474.61 88.0241Z" fill="#5F2DDE"/>
        <path id="path-2" opacity="0.6" d="M478.189 81.5911C477.946 82.4326 477.065 82.9001 476.221 82.657C475.378 82.4139 474.91 81.535 475.153 80.6935C475.397 79.8519 476.278 79.3844 477.121 79.6275C477.964 79.8706 478.452 80.7496 478.189 81.5911Z" fill="#5F2DDE"/>
        <path id="path-2" opacity="0.6" d="M482.369 79.9641C482.125 80.8057 481.244 81.2732 480.401 81.0301C479.558 80.787 479.089 79.908 479.333 79.0665C479.576 78.225 480.457 77.7575 481.301 78.0006C482.144 78.2437 482.631 79.1226 482.369 79.9641Z" fill="#5F2DDE"/>
        <path id="path-2" opacity="0.5" d="M488.272 94.5319L470.937 101.358L469.888 97.9542L487.223 91.1284L488.272 94.5319Z" fill="#5F2DDE"/>
        <path id="path-2" opacity="0.2" d="M392.637 354.434C392.262 368.534 391.213 379.362 389.489 386.88C387.277 396.492 383.848 403.523 379.181 407.974C374.534 412.425 369.024 414.65 362.671 414.65C353.038 414.65 345.673 409.414 340.613 398.923C339.788 397.221 339.039 395.276 338.345 393.107C327.644 402.289 317.674 412.313 308.51 423.084L298.559 434.791C303.937 440.233 310.047 444.702 316.868 448.237C328.544 454.258 343.855 457.288 362.821 457.288C366.156 457.288 369.38 457.194 372.51 457.007C383.979 440.064 393.48 421.85 400.808 402.738L428.638 330.329L392.637 354.434Z" fill="black"/>
        <path id="path-2" d="M141.755 453.155C152.25 463.627 174.551 485.881 174.551 485.881L266.399 399.54C234.784 387.553 173.183 421.794 141.755 453.155Z" fill="#263238"/>
        <path id="path-2" d="M256.13 567.285C245.635 556.813 223.334 534.559 223.334 534.559L309.86 442.907C321.873 474.455 287.558 535.924 256.13 567.285Z" fill="#263238"/>
        <path id="path-2" d="M381.655 361.035L417.431 292.198L348.447 327.898C326.276 339.361 305.83 353.854 287.652 370.928L170.054 481.393L227.831 539.047L338.533 421.7C355.643 403.561 370.148 383.158 381.655 361.035Z" fill="#5F2DDE"/>
        <path id="path-2" opacity="0.6" d="M381.655 361.035L417.431 292.198L348.447 327.898C326.276 339.361 305.83 353.854 287.652 370.928L170.054 481.393L227.831 539.047L338.533 421.7C355.643 403.561 370.148 383.158 381.655 361.035Z" fill="white"/>
        <path id="path-2" d="M308.191 425.328C321.543 425.328 332.367 414.528 332.367 401.204C332.367 387.881 321.543 377.08 308.191 377.08C294.839 377.08 284.016 387.881 284.016 401.204C284.016 414.528 294.839 425.328 308.191 425.328Z" fill="white"/>
        <path id="path-2" d="M308.191 416.707C316.772 416.707 323.727 409.766 323.727 401.204C323.727 392.642 316.772 385.702 308.191 385.702C299.611 385.702 292.655 392.642 292.655 401.204C292.655 409.766 299.611 416.707 308.191 416.707Z" fill="#5F2DDE"/>
        <path id="path-2" opacity="0.3" d="M247.359 518.345L190.8 461.888L237.108 418.39L290.969 472.136L247.359 518.345Z" fill="#5F2DDE"/>
        <path id="path-2" d="M154.555 504.881C112.201 508.322 98.1643 535.382 93.3667 571.343C90.9304 589.689 89.8434 608.24 74.401 618.974C70.1094 621.947 72.2459 628.605 77.4558 628.436C134.315 626.66 160.833 598.889 164.169 587.257C163.026 594.607 161.358 600.423 159.503 604.967C157.591 609.661 162.764 613.999 167.055 611.307C183.022 601.32 203.037 582.975 204.368 553.185C192.561 536.635 154.555 504.881 154.555 504.881Z" fill="#5F2DDE"/>
        <path id="path-2" opacity="0.2" d="M154.555 504.881C112.201 508.322 98.1643 535.382 93.3667 571.343C90.9304 589.689 89.8434 608.24 74.401 618.974C70.1094 621.947 72.2459 628.605 77.4558 628.436C134.315 626.66 160.833 598.889 164.169 587.257C163.026 594.607 161.358 600.423 159.503 604.967C157.591 609.661 162.764 613.999 167.055 611.307C183.022 601.32 203.037 582.975 204.368 553.185C192.561 536.635 154.555 504.881 154.555 504.881Z" fill="white"/>
        <path id="path-2" d="M210.871 565.995L143.048 498.298L179.18 490.5L218.704 529.94L210.871 565.995Z" fill="#5F2DDE"/>
    </g>
    <defs>
        <clipPath id="clip0_82_4725">
            <rect width="720" height="673" fill="white"/>
        </clipPath>
    </defs>
</svg>