<svg width="679" height="679" viewBox="0 0 679 679" fill="none" xmlns="http://www.w3.org/2000/svg">
							<path opacity="0.5" d="M467.759 751.813L221.861 751.885L222.011 242.576L467.909 242.504L467.759 751.813Z" fill="url(#paint0_linear_701_6157)"/>
							<path opacity="0.5" d="M385.461 776.111L300.773 776.136L300.916 289.114C300.919 277.521 310.316 268.124 321.91 268.121L364.598 268.108C376.201 268.105 385.608 277.511 385.605 289.114L385.461 776.111Z" fill="url(#paint1_linear_701_6157)"/>
							<path d="M378.981 294.714C378.743 314.625 341.6 409.397 341.6 409.397C341.6 409.397 306.664 313.827 306.871 293.915C307.109 274.004 323.435 258.048 343.331 258.259C363.258 258.47 379.219 274.803 378.981 294.714Z" fill="url(#paint2_linear_701_6157)"/>
							<path d="M361.872 290.109C361.76 300.428 342.5 349.539 342.5 349.539C342.5 349.539 324.398 300.021 324.509 289.702C324.62 279.383 333.085 271.103 343.42 271.224C353.739 271.329 361.998 279.805 361.872 290.109Z" fill="url(#paint3_linear_701_6157)"/>
							<path d="M328.937 14.7016L339.848 3.32708C341.658 1.45454 344.66 1.42272 346.485 3.30966L357.481 14.6467C372.144 29.7732 380.353 50.0224 380.347 71.0941L380.342 88.4836L306.328 88.5054L306.333 70.8683C306.339 49.9204 314.436 29.7902 328.937 14.7016Z" fill="url(#paint4_linear_701_6157)"/>
							<path d="M315.917 255.39C291.147 260.116 271.386 273.226 254.78 291.656C246.5 300.833 234.71 306.035 222.38 305.466L221.219 305.42L221.252 246.676C221.257 230.617 228.966 215.144 242.847 203.243L319.773 137.359L315.917 255.39Z" fill="#5F2DDE"/>
							<path d="M372.975 253.331C397.743 258.042 417.511 271.156 434.091 289.561C442.365 298.733 454.153 303.928 466.483 303.352L467.644 303.305L467.646 244.562C467.65 228.503 459.95 213.034 446.076 201.141L369.189 135.303L372.975 253.331Z" fill="#5F2DDE"/>
							<path d="M306.27 284.494L306.333 72.1681L380.346 72.1463L380.284 284.472L306.27 284.494Z" fill="url(#paint5_linear_701_6157)"/>
							<path d="M300.947 288.642L300.961 273.966C300.965 269.552 304.544 265.975 308.959 265.974L377.597 265.954C382.015 265.953 385.597 269.533 385.599 273.951L385.605 288.617L300.947 288.642Z" fill="url(#paint6_linear_701_6157)"/>
							<path d="M306.33 80.0274L380.344 80.0056L380.348 66.7624L306.334 66.7841L306.33 80.0274Z" fill="url(#paint7_linear_701_6157)"/>
							<g opacity="0.14">
								<path d="M357.231 130.68C364.914 122.997 364.918 110.543 357.239 102.863C349.56 95.1842 337.106 95.1878 329.422 102.872C321.738 110.555 321.734 123.009 329.414 130.689C337.093 138.368 349.547 138.364 357.231 130.68Z" fill="black"/>
							</g>
								<path d="M356.799 126.132C364.243 118.687 364.247 106.621 356.807 99.1812C349.367 91.7412 337.301 91.7447 329.856 99.1891C322.412 106.634 322.408 118.7 329.848 126.14C337.288 133.58 349.354 133.576 356.799 126.132Z" fill="url(#paint8_linear_701_6157)"/>
								<path d="M333.29 102.623C335.967 99.9455 339.557 98.4592 343.332 98.4581C347.138 98.457 350.696 99.9412 353.371 102.617C356.047 105.293 357.531 108.881 357.53 112.656C357.529 116.462 356.043 120.021 353.365 122.698C350.688 125.376 347.098 126.862 343.323 126.863C335.495 126.865 329.123 120.493 329.125 112.665C329.111 108.874 330.597 105.316 333.29 102.623ZM329.423 98.7561C325.864 102.316 323.665 107.236 323.648 112.666C323.645 123.527 332.446 132.328 343.306 132.324C348.752 132.323 353.657 130.109 357.216 126.55C360.776 122.99 362.974 118.07 362.991 112.639C362.995 101.779 354.194 92.9781 343.333 92.9813C337.903 92.9984 332.982 95.1967 329.423 98.7561Z" fill="url(#paint9_linear_701_6157)"/>
								<path opacity="0.33" d="M306.33 82.2552L380.343 82.2334L380.344 80.0056L306.33 80.0274L306.33 82.2552Z" fill="url(#paint10_linear_701_6157)"/>
								<path opacity="0.2" d="M347.329 235.825C347.315 284.59 344.178 324.135 340.326 324.152C336.458 324.153 333.36 284.625 333.374 235.829C333.389 187.033 336.525 147.519 340.378 147.503C344.23 147.517 347.344 187.06 347.329 235.825Z" fill="#5F2DDE"/>
							<defs>
								<linearGradient id="paint0_linear_701_6157" x1="335.788" y1="167.322" x2="352.751" y2="769.706" gradientUnits="userSpaceOnUse">
									<stop offset="0.00155865" stop-color="white"/>
									<stop offset="1" stop-color="white" stop-opacity="0"/>
								</linearGradient>
								<linearGradient id="paint1_linear_701_6157" x1="340.122" y1="193.102" x2="388.504" y2="790.482" gradientUnits="userSpaceOnUse">
									<stop offset="0.00155865" stop-color="white"/>
									<stop offset="1" stop-color="white" stop-opacity="0"/>
								</linearGradient>
								<linearGradient id="paint2_linear_701_6157" x1="342.94" y1="251.076" x2="342.979" y2="385.176" gradientUnits="userSpaceOnUse">
									<stop offset="0.00155865" stop-color="#FFDE55"/>
									<stop offset="1" stop-color="#FFE474" stop-opacity="0"/>
								</linearGradient>
								<linearGradient id="paint3_linear_701_6157" x1="343.205" y1="269.137" x2="343.222" y2="325.713" gradientUnits="userSpaceOnUse">
									<stop offset="0.00155865" stop-color="#FF4E00"/>
									<stop offset="1" stop-color="#FF621D" stop-opacity="0"/>
								</linearGradient>
								<linearGradient id="paint4_linear_701_6157" x1="399.436" y1="35.2333" x2="300.089" y2="61.2035" gradientUnits="userSpaceOnUse">
									<stop stop-color="#9133FF"/>
									<stop offset="1" stop-color="#001780"/>
								</linearGradient>
								<linearGradient id="paint5_linear_701_6157" x1="380.309" y1="178.312" x2="306.307" y2="178.29" gradientUnits="userSpaceOnUse">
									<stop stop-color="white"/>
									<stop offset="1" stop-color="#4769FF"/>
								</linearGradient>
								<linearGradient id="paint6_linear_701_6157" x1="385.6" y1="277.285" x2="300.958" y2="277.261" gradientUnits="userSpaceOnUse">
									<stop stop-color="#7539FF"/>
									<stop offset="1" stop-color="#12007A"/>
								</linearGradient>
								<linearGradient id="paint7_linear_701_6157" x1="380.34" y1="73.3758" x2="306.337" y2="73.3541" gradientUnits="userSpaceOnUse">
									<stop stop-color="#9133FF"/>
									<stop offset="1" stop-color="#001780"/>
								</linearGradient>
								<linearGradient id="paint8_linear_701_6157" x1="380.71" y1="109.561" x2="295.425" y2="116.59" gradientUnits="userSpaceOnUse">
									<stop stop-color="#00FFFF"/>
									<stop offset="1" stop-color="#2F39E5"/>
								</linearGradient>
								<linearGradient id="paint9_linear_701_6157" x1="362.998" y1="112.658" x2="323.656" y2="112.647" gradientUnits="userSpaceOnUse">
									<stop stop-color="#7539FF"/>
									<stop offset="1" stop-color="#12007A"/>
								</linearGradient>
								<linearGradient id="paint10_linear_701_6157" x1="343.024" y1="84.6259" x2="343.512" y2="79.1154" gradientUnits="userSpaceOnUse">
									<stop stop-color="#6A39FF"/>
									<stop offset="1" stop-color="#050036"/>
								</linearGradient>
							</defs>
						</svg>