<svg width="104" height="89" viewBox="0 0 104 89" fill="none" xmlns="http://www.w3.org/2000/svg">
    <g opacity="0.1" clip-path="url(#clip0_701_2012)">
    <path d="M81.1141 41.751L80.8111 43.3023L82.3819 43.4778C93.7669 44.75 102.543 54.1084 102.543 65.4045C102.543 77.5566 92.3811 87.4856 79.7479 87.4856C67.1192 87.4856 56.9524 77.5609 56.9524 65.4045C56.9524 62.3964 57.578 59.5377 58.7006 56.9252C58.9133 56.4324 59.161 55.9456 59.4323 55.4282L59.4421 55.4097L59.4512 55.3909L85.3252 2.39865L88.8013 2.39865L81.1141 41.751Z" stroke="#5F2DDE" stroke-width="2.91304"/>
    <path d="M25.6183 41.751L25.3153 43.3023L26.886 43.4778C38.2713 44.7501 47.0476 54.1086 47.0476 65.3998C47.0476 77.5519 36.8852 87.4809 24.2521 87.4809C11.6234 87.4809 1.45652 77.5562 1.45652 65.3998C1.45652 62.3968 2.08202 59.5377 3.20041 56.9241C3.41297 56.4317 3.66058 55.9452 3.93168 55.4282L3.9414 55.4097L3.95058 55.3909L29.8245 2.39866L33.3055 2.39866L25.6183 41.751Z" stroke="#5F2DDE" stroke-width="2.91304"/>
    </g>
    <defs>
    <clipPath id="clip0_701_2012">
    <rect width="104" height="88" fill="white" transform="translate(0 0.942139)"/>
    </clipPath>
    </defs>
</svg>