<svg xmlns="http://www.w3.org/2000/svg" width="109" height="94" viewBox="0 0 109 94" fill="none">
    <g opacity="0.1" clip-path="url(#clip0_478_18135)">
    <path d="M23.9177 50.827L24.2176 49.2791L22.6509 49.1026C10.6943 47.7553 1.45638 37.8402 1.45638 25.8477C1.45639 12.9458 12.1523 2.42918 25.4179 2.42918C38.6789 2.42918 49.3794 12.9413 49.3794 25.8477C49.3794 29.04 48.7209 32.0736 47.5398 34.8454C47.3155 35.3694 47.0545 35.8864 46.7699 36.4336L46.7603 36.4521L46.7512 36.4708L19.6129 92.5161L15.8414 92.5161L23.9177 50.827Z" stroke="#5F2DDE" stroke-width="2.91304"/>
    <path d="M82.0818 50.827L82.3816 49.2791L80.8149 49.1026C68.8581 47.7553 59.6204 37.84 59.6204 25.8526C59.6204 12.9508 70.3163 2.43412 83.582 2.43412C96.843 2.43412 107.543 12.9462 107.543 25.8526C107.543 29.0395 106.885 32.0734 105.709 34.8462C105.484 35.37 105.223 35.8867 104.939 36.4336L104.929 36.4521L104.92 36.4708L77.782 92.5161L74.0054 92.5161L82.0818 50.827Z" stroke="#5F2DDE" stroke-width="2.91304"/>
    </g>
    <defs>
    <clipPath  >
        <rect width="109" height="93" fill="white" transform="translate(109 93.9727) rotate(-180)"/>
    </clipPath>
    </defs>
</svg>